<?xml version="1.0" encoding="UTF-8"?>
<svg xmlns="http://www.w3.org/2000/svg" xmlns:xlink="http://www.w3.org/1999/xlink" width="150pt" height="37.5pt" viewBox="0 0 150 37.5" version="1.2">
<g id="surface1">
<path style=" stroke:none;fill-rule:nonzero;fill:rgb(51.368713%,80.389404%,16.079712%);fill-opacity:1;" d="M 130.457031 13.097656 C 130.136719 13.097656 129.828125 13.164062 129.550781 13.320312 L 120.84375 18.324219 C 120.277344 18.648438 119.9375 19.257812 119.9375 19.90625 L 119.9375 29.898438 C 119.9375 30.546875 120.277344 31.15625 120.84375 31.480469 L 123.117188 32.785156 C 124.222656 33.328125 124.628906 33.320312 125.132812 33.320312 C 126.769531 33.320312 127.703125 32.332031 127.703125 30.613281 L 127.703125 20.757812 C 127.703125 20.617188 127.582031 20.515625 127.445312 20.515625 L 126.351562 20.515625 C 126.214844 20.515625 126.09375 20.617188 126.09375 20.757812 L 126.09375 30.617188 C 126.09375 31.378906 125.296875 32.144531 124.003906 31.503906 L 121.640625 30.121094 C 121.558594 30.078125 121.492188 29.996094 121.492188 29.902344 L 121.492188 19.910156 C 121.492188 19.816406 121.554688 19.71875 121.640625 19.671875 L 130.332031 14.683594 C 130.414062 14.636719 130.511719 14.636719 130.589844 14.683594 L 139.28125 19.671875 C 139.363281 19.71875 139.429688 19.8125 139.429688 19.910156 L 139.429688 29.902344 C 139.429688 29.996094 139.382812 30.09375 139.300781 30.140625 L 130.589844 35.128906 C 130.511719 35.171875 130.410156 35.171875 130.332031 35.128906 L 128.09375 33.804688 C 128.027344 33.765625 127.9375 33.765625 127.871094 33.804688 C 127.253906 34.152344 127.140625 34.191406 126.558594 34.390625 C 126.417969 34.441406 126.199219 34.519531 126.632812 34.761719 L 129.554688 36.472656 C 129.832031 36.632812 130.144531 36.710938 130.460938 36.710938 C 130.785156 36.710938 131.089844 36.636719 131.367188 36.472656 L 140.078125 31.488281 C 140.640625 31.160156 140.984375 30.554688 140.984375 29.902344 L 140.984375 19.910156 C 140.984375 19.261719 140.640625 18.652344 140.078125 18.328125 L 131.367188 13.324219 C 131.09375 13.167969 130.78125 13.105469 130.460938 13.105469 Z M 132.789062 20.238281 C 130.308594 20.238281 128.832031 21.289062 128.832031 23.035156 C 128.832031 24.929688 130.296875 25.453125 132.675781 25.683594 C 135.523438 25.964844 135.746094 26.378906 135.746094 26.9375 C 135.746094 27.90625 134.972656 28.316406 133.140625 28.316406 C 130.839844 28.316406 130.332031 27.746094 130.164062 26.601562 C 130.144531 26.480469 130.046875 26.382812 129.921875 26.382812 L 128.792969 26.382812 C 128.621094 26.386719 128.535156 26.472656 128.53125 26.640625 C 128.53125 28.097656 129.328125 29.824219 133.136719 29.824219 C 135.894531 29.824219 137.484375 28.75 137.484375 26.859375 C 137.484375 24.992188 136.199219 24.488281 133.527344 24.136719 C 130.828125 23.777344 130.566406 23.609375 130.566406 22.976562 C 130.566406 22.457031 130.785156 21.761719 132.785156 21.761719 C 134.574219 21.761719 135.234375 22.148438 135.503906 23.34375 C 135.527344 23.457031 135.628906 23.550781 135.746094 23.550781 L 136.875 23.550781 C 136.945312 23.550781 137.011719 23.507812 137.058594 23.457031 C 137.109375 23.40625 137.140625 23.34375 137.132812 23.273438 C 136.960938 21.210938 135.574219 20.238281 132.789062 20.238281 Z M 132.789062 20.238281 "/>
<path style=" stroke:none;fill-rule:nonzero;fill:rgb(25.099182%,25.489807%,21.569824%);fill-opacity:1;" d="M 79.253906 0 C 79.15625 0 79.0625 0.0234375 78.976562 0.0742188 C 78.792969 0.179688 78.703125 0.339844 78.699219 0.550781 L 78.699219 14.628906 C 78.699219 14.765625 78.636719 14.890625 78.515625 14.960938 C 78.386719 15.035156 78.257812 15.035156 78.125 14.960938 L 75.816406 13.636719 C 75.445312 13.421875 75.074219 13.421875 74.707031 13.636719 L 65.480469 18.933594 C 65.132812 19.132812 64.925781 19.515625 64.925781 19.910156 L 64.925781 30.507812 C 64.921875 30.933594 65.109375 31.253906 65.480469 31.464844 L 74.707031 36.765625 C 75.078125 36.980469 75.445312 36.980469 75.816406 36.765625 L 85.042969 31.464844 C 85.414062 31.253906 85.597656 30.933594 85.597656 30.507812 L 85.597656 4.085938 C 85.597656 3.683594 85.378906 3.304688 85.023438 3.109375 L 79.53125 0.0546875 C 79.445312 0.0078125 79.351562 -0.00390625 79.253906 0 Z M 19.898438 13.230469 C 19.71875 13.238281 19.554688 13.269531 19.398438 13.359375 L 10.171875 18.660156 C 9.800781 18.871094 9.613281 19.191406 9.617188 19.617188 L 9.632812 33.839844 C 9.632812 34.039062 9.738281 34.222656 9.910156 34.320312 C 10.082031 34.421875 10.296875 34.421875 10.464844 34.320312 L 15.941406 31.191406 C 16.285156 30.984375 16.511719 30.628906 16.511719 30.234375 L 16.511719 23.589844 C 16.511719 23.195312 16.722656 22.832031 17.066406 22.632812 L 19.398438 21.289062 C 19.570312 21.191406 19.753906 21.140625 19.953125 21.144531 C 20.152344 21.140625 20.335938 21.191406 20.507812 21.289062 L 22.835938 22.632812 C 23.183594 22.828125 23.390625 23.195312 23.390625 23.589844 L 23.390625 30.230469 C 23.390625 30.628906 23.621094 30.988281 23.964844 31.1875 L 29.4375 34.316406 C 29.609375 34.417969 29.824219 34.417969 29.992188 34.316406 C 30.164062 34.21875 30.269531 34.035156 30.269531 33.839844 L 30.289062 19.613281 C 30.292969 19.1875 30.105469 18.871094 29.734375 18.65625 L 20.507812 13.359375 C 20.351562 13.269531 20.183594 13.238281 20.007812 13.230469 Z M 102.8125 13.359375 C 102.613281 13.359375 102.429688 13.40625 102.257812 13.507812 L 93.03125 18.804688 C 92.683594 19.003906 92.476562 19.367188 92.476562 19.761719 L 92.476562 30.363281 C 92.476562 30.761719 92.699219 31.121094 93.046875 31.320312 L 102.199219 36.511719 C 102.539062 36.703125 102.953125 36.71875 103.292969 36.527344 L 108.839844 33.457031 C 109.015625 33.359375 109.132812 33.175781 109.136719 32.976562 C 109.136719 32.777344 109.03125 32.597656 108.859375 32.5 L 99.574219 27.199219 C 99.402344 27.101562 99.277344 26.902344 99.277344 26.703125 L 99.277344 23.386719 C 99.277344 23.191406 99.402344 23.007812 99.574219 22.910156 L 102.460938 21.253906 C 102.628906 21.15625 102.839844 21.15625 103.015625 21.253906 L 105.90625 22.910156 C 106.089844 23.015625 106.183594 23.175781 106.183594 23.386719 L 106.183594 26 C 106.183594 26.214844 106.273438 26.371094 106.460938 26.480469 C 106.632812 26.578125 106.84375 26.578125 107.015625 26.480469 L 112.542969 23.277344 C 112.886719 23.078125 113.097656 22.714844 113.097656 22.320312 L 113.097656 19.761719 C 113.097656 19.335938 112.914062 19.019531 112.542969 18.804688 L 103.371094 13.507812 C 103.199219 13.40625 103.015625 13.359375 102.816406 13.359375 Z M 75.222656 21.273438 C 75.273438 21.273438 75.324219 21.285156 75.371094 21.308594 L 78.53125 23.128906 C 78.617188 23.179688 78.679688 23.269531 78.679688 23.371094 L 78.679688 27.011719 C 78.679688 27.113281 78.617188 27.203125 78.53125 27.253906 L 75.371094 29.074219 C 75.285156 29.121094 75.179688 29.121094 75.09375 29.074219 L 71.929688 27.253906 C 71.84375 27.203125 71.78125 27.113281 71.78125 27.011719 L 71.78125 23.371094 C 71.78125 23.273438 71.84375 23.183594 71.929688 23.132812 L 75.09375 21.308594 C 75.136719 21.285156 75.175781 21.273438 75.222656 21.273438 Z M 75.222656 21.273438 "/>
<path style=" stroke:none;fill-rule:nonzero;fill:rgb(51.368713%,80.389404%,16.079712%);fill-opacity:1;" d="M 47.613281 13.304688 C 47.417969 13.304688 47.230469 13.351562 47.058594 13.453125 L 37.832031 18.734375 C 37.488281 18.929688 37.277344 19.3125 37.277344 19.707031 L 37.277344 30.308594 C 37.277344 30.734375 37.460938 31.050781 37.832031 31.261719 L 47.058594 36.5625 C 47.429688 36.777344 47.800781 36.777344 48.167969 36.5625 L 57.394531 31.261719 C 57.765625 31.050781 57.953125 30.730469 57.953125 30.308594 L 57.953125 19.707031 C 57.953125 19.3125 57.742188 18.929688 57.394531 18.734375 L 48.167969 13.453125 C 47.996094 13.351562 47.8125 13.304688 47.613281 13.304688 Z M 102.792969 22.761719 C 102.757812 22.761719 102.714844 22.761719 102.683594 22.78125 L 100.90625 23.8125 C 100.835938 23.851562 100.796875 23.914062 100.796875 23.996094 L 100.796875 26.019531 C 100.796875 26.09375 100.839844 26.164062 100.90625 26.203125 L 102.683594 27.214844 C 102.75 27.257812 102.820312 27.257812 102.886719 27.214844 L 104.660156 26.203125 C 104.726562 26.164062 104.773438 26.09375 104.773438 26.019531 L 104.773438 23.996094 C 104.773438 23.917969 104.726562 23.847656 104.660156 23.8125 L 102.886719 22.78125 C 102.851562 22.761719 102.832031 22.761719 102.792969 22.761719 Z M 102.792969 22.761719 "/>
</g>
</svg>
