<?xml version="1.0" encoding="UTF-8"?>
<svg xmlns="http://www.w3.org/2000/svg" xmlns:xlink="http://www.w3.org/1999/xlink" width="150pt" height="149.999998pt" viewBox="0 0 150 149.999998" version="1.2">
<g id="surface1">
<path style=" stroke:none;fill-rule:nonzero;fill:rgb(8.628845%,46.669006%,78.039551%);fill-opacity:1;" d="M 0 75 L 0 150 L 150 150 L 150 0 L 0 0 Z M 91.019531 122.664062 C 91.695312 122.28125 94.210938 120.824219 96.59375 119.445312 L 100.90625 116.945312 L 101.8125 118.28125 C 103.074219 120.207031 105.832031 122.851562 107.5 123.730469 C 112.289062 126.257812 118.855469 125.898438 122.09375 122.992188 C 123.300781 121.976562 124.054688 120.460938 124.054688 118.773438 C 124.054688 118.675781 124.054688 118.582031 124.050781 118.480469 L 124.050781 118.492188 C 124.050781 116.757812 123.832031 115.992188 122.925781 114.679688 C 121.761719 113.019531 119.382812 111.617188 112.617188 108.679688 C 104.882812 105.351562 101.550781 103.28125 98.5 99.992188 C 96.664062 97.90625 95.242188 95.394531 94.417969 92.632812 L 94.382812 92.492188 C 93.8125 90.375 93.667969 85.0625 94.117188 82.925781 C 95.710938 75.445312 101.355469 70.238281 109.5 68.6875 C 112.144531 68.1875 118.289062 68.375 120.882812 69.019531 L 120.882812 69.023438 C 124.695312 69.976562 127.59375 71.667969 130.261719 74.429688 C 131.644531 75.90625 133.695312 78.59375 133.855469 79.242188 C 133.90625 79.429688 127.382812 83.804688 123.429688 86.261719 C 123.289062 86.355469 122.710938 85.738281 122.074219 84.789062 C 120.136719 81.976562 118.117188 80.761719 115.023438 80.550781 C 110.476562 80.238281 107.550781 82.617188 107.574219 86.59375 C 107.574219 86.664062 107.570312 86.742188 107.570312 86.824219 C 107.570312 87.769531 107.804688 88.65625 108.226562 89.429688 L 108.210938 89.398438 C 109.210938 91.46875 111.074219 92.710938 116.898438 95.230469 C 127.644531 99.855469 132.238281 102.898438 135.09375 107.230469 C 138.28125 112.0625 139 119.78125 136.832031 125.519531 C 134.457031 131.757812 128.550781 135.992188 120.238281 137.394531 C 117.667969 137.851562 111.574219 137.78125 108.8125 137.28125 C 102.789062 136.207031 97.074219 133.230469 93.550781 129.324219 C 92.167969 127.804688 89.476562 123.824219 89.644531 123.542969 C 89.710938 123.445312 90.332031 123.0625 91.019531 122.664062 Z M 32.863281 75.40625 C 32.863281 72.070312 32.929688 69.28125 33.023438 69.21875 C 33.101562 69.117188 44.980469 69.070312 59.382812 69.09375 L 85.601562 69.167969 L 85.667969 75.289062 L 85.71875 81.429688 L 66.1875 81.429688 L 66.1875 136.90625 L 52.375 136.90625 L 52.375 81.429688 L 32.863281 81.429688 Z M 32.863281 75.40625 "/>
</g>
</svg>
