<?xml version="1.0" encoding="UTF-8"?>
<svg xmlns="http://www.w3.org/2000/svg" xmlns:xlink="http://www.w3.org/1999/xlink" width="100pt" height="100pt" viewBox="0 0 900 899.99999" version="1.2">
<g id="surface1">
<path style=" stroke:none;fill-rule:nonzero;fill:rgb(30.589294%,47.059631%,58.81958%);fill-opacity:1;" d="M 370.542969 477.285156 C 370.542969 477.285156 346.847656 491.71875 387.027344 495.84375 C 435.445312 502.027344 461.199219 500.996094 514.765625 490.6875 C 514.765625 490.6875 529.1875 499.964844 548.761719 507.179688 C 428.230469 558.722656 275.761719 504.085938 370.546875 477.285156 Z M 355.09375 410.28125 C 355.09375 410.28125 329.339844 429.867188 369.515625 433.992188 C 422.054688 439.148438 463.257812 440.179688 534.339844 425.746094 C 534.339844 425.746094 543.609375 436.054688 559.0625 441.207031 C 413.8125 484.503906 251.035156 445.332031 355.089844 410.285156 Z M 639.421875 527.785156 C 639.421875 527.785156 656.933594 542.21875 619.847656 553.558594 C 550.824219 574.175781 330.378906 580.359375 268.558594 553.558594 C 246.925781 544.285156 288.132812 530.878906 301.523438 528.816406 C 314.914062 525.726562 322.125 525.726562 322.125 525.726562 C 298.433594 509.234375 164.511719 559.742188 254.136719 574.175781 C 500.339844 614.378906 703.285156 556.652344 639.421875 527.785156 Z M 381.882812 340.175781 C 381.882812 340.175781 269.597656 366.976562 341.707031 376.253906 C 372.613281 380.378906 433.390625 379.347656 490.050781 375.222656 C 536.40625 371.097656 582.765625 362.851562 582.765625 362.851562 C 582.765625 362.851562 566.285156 370.0625 554.949219 377.28125 C 440.605469 407.175781 221.183594 393.773438 284.015625 362.851562 C 337.585938 337.078125 381.878906 340.171875 381.878906 340.171875 Z M 582.761719 452.535156 C 698.140625 392.746094 644.574219 335.023438 607.488281 342.234375 C 598.214844 344.296875 594.09375 346.359375 594.09375 346.359375 C 594.09375 346.359375 597.183594 340.171875 604.394531 338.113281 C 677.535156 312.339844 735.226562 415.421875 580.703125 455.625 C 580.703125 455.625 581.734375 454.59375 582.761719 452.535156 Z M 393.210938 615.40625 C 504.46875 622.625 674.425781 611.285156 678.574219 558.710938 C 678.574219 558.710938 670.335938 579.328125 586.890625 594.789062 C 492.117188 612.316406 374.679688 610.253906 305.675781 598.914062 C 305.675781 598.914062 320.097656 611.285156 393.238281 615.40625 Z M 393.210938 615.40625 "/>
<path style=" stroke:none;fill-rule:nonzero;fill:rgb(96.078491%,50.979614%,9.799194%);fill-opacity:1;" d="M 512.703125 0 C 512.703125 0 576.574219 64.941406 451.921875 162.871094 C 352 242.246094 429.261719 287.605469 451.921875 339.144531 C 393.203125 286.570312 350.96875 240.183594 379.8125 196.890625 C 422.054688 132.976562 538.472656 102.074219 512.710938 0 Z M 479.757812 295.855469 C 509.632812 329.875 471.515625 360.800781 471.515625 360.800781 C 471.515625 360.800781 547.75 321.628906 512.722656 273.179688 C 480.789062 226.792969 456.0625 204.113281 589.984375 126.820312 C 589.984375 126.820312 378.804688 179.394531 479.753906 295.878906 Z M 403.511719 849.398438 L 403.511719 748.378906 C 403.511719 722.605469 389.089844 705.082031 353.035156 705.082031 C 332.429688 705.082031 314.917969 710.234375 299.464844 716.402344 L 304.617188 734.957031 C 315.929688 730.835938 330.371094 726.710938 345.824219 726.710938 C 365.398438 726.710938 374.667969 734.957031 374.667969 751.449219 L 374.667969 764.851562 L 364.367188 764.851562 C 314.921875 764.851562 292.257812 783.40625 292.257812 813.300781 C 292.257812 838.039062 307.707031 852.472656 335.523438 852.472656 C 353.035156 852.472656 366.429688 844.222656 378.792969 833.914062 L 380.851562 849.378906 L 403.515625 849.378906 Z M 374.667969 816.414062 C 364.367188 825.691406 353.035156 830.84375 342.730469 830.84375 C 329.339844 830.84375 321.097656 822.597656 321.097656 808.167969 C 321.097656 793.734375 329.339844 783.425781 362.304688 783.425781 L 374.667969 783.425781 Z M 500.347656 849.398438 L 464.292969 849.398438 L 421.03125 708.175781 L 451.9375 708.175781 L 478.71875 794.765625 L 484.898438 820.535156 C 498.292969 783.425781 508.59375 745.285156 512.714844 708.175781 L 543.621094 708.175781 C 535.378906 754.5625 520.957031 805.074219 500.355469 849.398438 Z M 667.234375 849.398438 L 667.234375 748.378906 C 667.234375 722.605469 652.8125 705.082031 616.753906 705.082031 C 596.152344 705.082031 578.640625 710.234375 563.183594 716.402344 L 567.308594 734.957031 C 579.671875 730.835938 594.089844 726.710938 609.542969 726.710938 C 629.117188 726.710938 638.386719 734.957031 638.386719 751.449219 L 638.386719 764.851562 L 628.089844 764.851562 C 578.640625 764.851562 555.976562 783.40625 555.976562 813.300781 C 555.976562 838.039062 570.398438 852.472656 598.210938 852.472656 C 616.757812 852.472656 630.148438 844.222656 642.507812 833.914062 L 644.570312 849.378906 L 667.234375 849.378906 Z M 638.386719 816.414062 C 628.089844 825.691406 616.757812 830.84375 606.453125 830.84375 C 593.0625 830.84375 584.820312 822.597656 584.820312 808.167969 C 584.820312 793.734375 593.0625 783.425781 626.027344 783.425781 L 638.390625 783.425781 L 638.390625 816.390625 Z M 260.328125 873.109375 C 252.085938 885.484375 239.722656 894.757812 224.269531 899.914062 L 210.871094 883.429688 C 221.171875 877.246094 231.476562 867.96875 235.59375 859.71875 C 239.714844 852.5 240.746094 842.191406 240.746094 818.484375 L 240.746094 657.675781 L 271.652344 657.675781 L 271.652344 816.425781 C 271.652344 848.378906 268.5625 860.75 260.339844 873.125 Z M 260.328125 873.109375 "/>
</g>
</svg>
