<?xml version="1.0" encoding="UTF-8"?>
<svg xmlns="http://www.w3.org/2000/svg" xmlns:xlink="http://www.w3.org/1999/xlink" width="900pt" height="899.99999pt" viewBox="0 0 900 899.99999" version="1.2">
<g id="surface1">
<rect x="0" y="0" width="900" height="899.99999" style="fill:rgb(100%,100%,100%);fill-opacity:1;stroke:none;"/>
<rect x="0" y="0" width="900" height="899.99999" style="fill:rgb(100%,100%,100%);fill-opacity:1;stroke:none;"/>
<rect x="0" y="0" width="900" height="899.99999" style="fill:rgb(100%,100%,100%);fill-opacity:1;stroke:none;"/>
<rect x="0" y="0" width="900" height="899.99999" style="fill:rgb(100%,83.918762%,0%);fill-opacity:1;stroke:none;"/>
<path style=" stroke:none;fill-rule:nonzero;fill:rgb(0%,0%,0.389099%);fill-opacity:1;" d="M 588.449219 673.675781 C 605.75 701.773438 624.550781 728.699219 664.375 728.699219 C 697.824219 728.699219 715.375 712.074219 715.375 689.074219 C 715.375 661.550781 697.226562 651.773438 660.425781 635.75 L 640.25 627.148438 C 582.023438 602.449219 543.300781 571.5 543.300781 506.125 C 543.300781 445.875 589.425781 400.023438 661.5 400.023438 C 712.824219 400.023438 749.699219 417.800781 776.300781 464.351562 L 713.449219 504.523438 C 699.625 479.824219 684.675781 470.101562 661.5 470.101562 C 637.851562 470.101562 622.875 485.023438 622.875 504.523438 C 622.875 528.625 637.875 538.375 672.5 553.300781 L 692.675781 561.898438 C 761.300781 591.125 800 620.976562 800 688.074219 C 800 760.375 742.898438 800 666.25 800 C 591.273438 800 548.699219 762.375 525 715.800781 Z M 298.800781 675.726562 C 311.449219 698.375 330.675781 715.800781 358.324219 715.800781 C 384.773438 715.800781 400 705.351562 400 664.726562 L 400 400 L 483.324219 400 L 483.324219 677.523438 C 483.324219 761.699219 434.5 800 363.199219 800 C 298.773438 800 252.273438 756.351562 233.324219 715.800781 Z M 298.800781 675.726562 "/>
</g>
</svg>
