<?xml version="1.0" encoding="UTF-8"?>
<svg xmlns="http://www.w3.org/2000/svg" xmlns:xlink="http://www.w3.org/1999/xlink" width="252pt" height="143.999998pt" viewBox="0 0 252 143.999998" version="1.2">
<defs>
<clipPath id="clip1">
  <path d="M 101 6 L 144 6 L 144 136 L 101 136 Z M 101 6 "/>
</clipPath>
<clipPath id="clip2">
  <path d="M 145.429688 6.957031 L 142.199219 135.914062 L 100.964844 134.882812 L 104.195312 5.921875 Z M 145.429688 6.957031 "/>
</clipPath>
<clipPath id="clip3">
  <path d="M 145.429688 6.957031 L 142.199219 135.914062 L 100.964844 134.882812 L 104.195312 5.921875 Z M 145.429688 6.957031 "/>
</clipPath>
</defs>
<g id="surface1">
<g clip-path="url(#clip1)" clip-rule="nonzero">
<g clip-path="url(#clip2)" clip-rule="nonzero">
<g clip-path="url(#clip3)" clip-rule="nonzero">
<path style=" stroke:none;fill-rule:evenodd;fill:rgb(100%,34.118652%,34.118652%);fill-opacity:1;" d="M 108.707031 107.3125 C 108.65625 107.25 108.617188 107.140625 108.558594 107.136719 C 108.503906 107.125 108.429688 107.214844 108.363281 107.261719 C 108.414062 107.328125 108.457031 107.429688 108.511719 107.441406 C 108.570312 107.445312 108.640625 107.355469 108.707031 107.3125 Z M 127.25 23.289062 C 127.144531 23.019531 127.003906 23.007812 126.878906 23.277344 C 126.859375 23.3125 126.988281 23.414062 127.050781 23.488281 C 127.117188 23.421875 127.1875 23.355469 127.25 23.289062 Z M 127.046875 24.621094 C 127.253906 24.523438 127.273438 24.402344 127.074219 24.277344 C 127.066406 24.265625 126.929688 24.371094 126.925781 24.433594 C 126.917969 24.492188 127.003906 24.554688 127.046875 24.621094 Z M 123.394531 125.042969 L 123.304688 125.1875 L 123.433594 125.210938 Z M 132.945312 118.53125 C 132.921875 118.621094 132.851562 118.722656 132.882812 118.789062 C 132.972656 118.984375 133.0625 118.921875 133.078125 118.628906 C 133.082031 118.59375 132.992188 118.5625 132.945312 118.53125 Z M 126.898438 33.75 C 126.921875 33.679688 126.96875 33.605469 126.964844 33.535156 C 126.9375 33.242188 126.839844 33.226562 126.722656 33.484375 C 126.695312 33.546875 126.722656 33.648438 126.746094 33.71875 C 126.757812 33.746094 126.84375 33.746094 126.898438 33.75 Z M 126.46875 25.75 C 126.546875 26.027344 126.640625 26.320312 126.984375 26.308594 C 127.074219 26.300781 127.214844 26.0625 127.230469 25.929688 C 127.25 25.652344 127.226562 25.328125 126.800781 25.421875 C 126.671875 25.453125 126.582031 25.636719 126.46875 25.75 Z M 107.652344 105.179688 C 107.886719 105.105469 107.945312 104.960938 107.785156 104.765625 C 107.679688 104.636719 107.523438 104.410156 107.414062 104.429688 C 107.082031 104.472656 107.109375 104.769531 107.21875 104.980469 C 107.277344 105.089844 107.5 105.117188 107.652344 105.179688 Z M 127 27.253906 C 126.324219 27.984375 126.582031 28.707031 126.929688 29.6875 C 127.214844 28.714844 127.511719 27.996094 127 27.253906 Z M 106.042969 101.117188 C 105.992188 101.761719 105.601562 102.503906 106.574219 102.84375 C 106.621094 102.894531 106.667969 102.957031 106.714844 103.015625 C 106.644531 102.980469 106.570312 102.949219 106.5 102.914062 C 106.621094 102.246094 106.878906 101.542969 105.964844 101.195312 C 105.902344 101.085938 105.839844 100.972656 105.824219 100.933594 C 105.851562 100.964844 105.949219 101.039062 106.042969 101.117188 Z M 109.933594 109.980469 C 110.011719 110.085938 110.09375 110.191406 110.058594 110.148438 C 110.109375 110.167969 109.980469 110.113281 109.855469 110.050781 C 109.976562 110.128906 109.578125 109.660156 109.933594 109.980469 Z M 134.53125 116.40625 C 135.035156 117.785156 134.335938 118.988281 133.84375 120.164062 C 132.679688 122.988281 131.789062 125.996094 129.390625 127.9375 C 128.46875 130.714844 128.226562 133.652344 125.484375 135.46875 C 123.980469 134.371094 123.226562 132.769531 122.496094 131.339844 C 121.824219 130.023438 121.148438 128.617188 120.679688 127.230469 C 119.859375 124.796875 118.003906 123.363281 116.382812 121.625 C 113.503906 118.550781 110.890625 115.28125 108.566406 111.738281 C 106.09375 107.976562 104.492188 103.816406 102.324219 99.925781 C 101.867188 99.097656 101.8125 98.296875 102.121094 97.386719 C 103.015625 96.769531 104.015625 96.484375 105.179688 96.652344 C 105.980469 97.4375 106.804688 98.246094 107.71875 99.140625 C 108.554688 98.984375 109.199219 97.996094 110.25 98.472656 C 111.074219 98.839844 111.277344 99.625 111.660156 100.253906 C 112.867188 102.269531 113.375 102.8125 115.546875 103.925781 C 116.148438 104.964844 115.949219 106.414062 117.070312 107.261719 L 117.015625 107.207031 C 118.34375 108.433594 118.054688 110.394531 119.191406 111.738281 C 120.027344 112.730469 120.636719 113.914062 121.4375 115.148438 C 121.824219 113.050781 121.238281 111.039062 121.746094 109.097656 L 121.671875 109.160156 C 122 108.925781 122.039062 108.691406 121.679688 108.449219 L 121.757812 108.507812 C 122.011719 104.789062 122.210938 101.074219 122.578125 97.355469 C 122.894531 94.195312 123.015625 90.875 122.289062 87.652344 C 121.613281 84.652344 121.96875 81.582031 121.921875 78.542969 C 121.882812 75.738281 122.347656 72.933594 121.898438 70.117188 C 121.730469 69.042969 122.449219 68.085938 122.457031 66.894531 C 122.46875 64.070312 122.058594 61.242188 122.628906 58.382812 C 123.039062 56.316406 122.460938 54.121094 122.878906 51.980469 C 123.328125 49.652344 123.050781 47.253906 123.144531 44.90625 C 123.25 42.003906 123.539062 39.089844 123.429688 36.164062 C 123.308594 32.777344 123.242188 29.390625 123.175781 26.007812 C 123.136719 24.039062 123.476562 21.96875 122.667969 19.898438 C 122.175781 18.625 123.03125 16.921875 122.910156 15.367188 C 122.824219 14.238281 122.550781 13.046875 123.351562 11.835938 C 124.480469 11.648438 125.667969 11.367188 126.105469 9.921875 C 126.289062 9.3125 126.820312 8.703125 127.542969 8.558594 C 128.65625 8.351562 128.332031 7.363281 128.703125 6.644531 C 128.769531 6.945312 128.78125 7.171875 128.867188 7.371094 C 130.257812 10.914062 130.042969 14.71875 130.746094 18.371094 C 131.796875 23.863281 131.355469 29.371094 130.882812 34.859375 C 130.785156 35.960938 131.203125 36.921875 131.097656 37.992188 C 130.816406 40.84375 130.601562 43.707031 130.496094 46.570312 C 130.378906 49.773438 130.59375 53.003906 130.351562 56.195312 C 129.917969 61.910156 130.027344 67.632812 129.976562 73.335938 C 129.945312 77.183594 129.117188 81.011719 129.886719 84.925781 C 130.152344 86.273438 129.480469 87.976562 129.425781 89.570312 C 129.375 91.105469 129.042969 92.613281 129.597656 94.128906 C 129.722656 94.46875 129.664062 94.921875 129.554688 95.277344 C 128.449219 98.679688 128.328125 102.15625 128.75 105.660156 C 128.855469 106.53125 128.382812 107.148438 128.15625 107.859375 C 127.6875 109.304688 128.894531 110.777344 128.207031 112.042969 C 127.503906 113.332031 127.550781 114.566406 127.480469 116.230469 C 129.109375 114.042969 129.457031 111.707031 130.070312 109.597656 C 131.039062 106.269531 132.28125 103.019531 133.535156 99.839844 C 134.75 96.738281 136 93.574219 137.632812 90.640625 C 138.40625 89.25 139.730469 88.160156 140.820312 86.933594 C 141.65625 87.242188 142.390625 87.5 143.222656 87.804688 C 142.925781 89.941406 143.273438 92.121094 141.851562 94.097656 C 141.238281 94.949219 141.042969 96.238281 141.351562 97.417969 L 141.425781 97.339844 C 139.804688 97.488281 140.3125 98.757812 140.15625 99.6875 L 140.257812 99.601562 C 140.125 99.675781 139.917969 99.722656 139.878906 99.832031 C 139.78125 100.113281 140.007812 100.21875 140.234375 100.296875 L 140.148438 100.226562 C 139.945312 100.625 139.738281 101.023438 139.53125 101.417969 L 139.613281 101.339844 C 138.980469 101.75 138.96875 102.171875 139.585938 102.613281 L 139.503906 102.542969 C 139.398438 103.796875 139.550781 105.140625 138.265625 105.980469 L 138.332031 106.050781 C 138.121094 105.574219 137.898438 105.613281 137.65625 106.023438 L 137.707031 105.980469 C 136.984375 106.539062 137.3125 107.101562 137.648438 107.730469 C 138.085938 108.523438 137.910156 109.183594 136.980469 109.53125 C 136.945312 109.195312 137.121094 108.816406 136.792969 108.523438 C 136.367188 108.992188 136.488281 109.289062 137.078125 109.449219 C 136.722656 110.074219 135.796875 110.292969 135.8125 111.183594 C 135.5625 111.386719 135.207031 111.558594 135.628906 112.132812 C 135.667969 111.691406 135.695312 111.398438 135.726562 111.105469 C 136.085938 111.019531 136.445312 110.9375 136.984375 110.8125 C 136.804688 112.097656 136.476562 113.210938 135.699219 114.167969 C 135.484375 113.8125 135.679688 113.015625 134.8125 113.234375 C 134.792969 114.058594 135.421875 113.894531 135.792969 114.078125 C 135.382812 114.898438 136.105469 116.339844 134.453125 116.476562 C 134.398438 116.1875 134.347656 115.890625 134.292969 115.546875 C 133.949219 116.003906 134.320312 116.179688 134.53125 116.40625 "/>
</g>
</g>
</g>
</g>
</svg>
