<?xml version="1.0" encoding="UTF-8"?>
<svg xmlns="http://www.w3.org/2000/svg" xmlns:xlink="http://www.w3.org/1999/xlink" width="252pt" height="143.999998pt" viewBox="0 0 252 143.999998" version="1.2">
<g id="surface1">
<path style=" stroke:none;fill-rule:nonzero;fill:rgb(0%,0%,0%);fill-opacity:1;" d="M 212.582031 64.84375 C 212.582031 64.59375 212.628906 64.355469 212.722656 64.125 C 212.820312 63.894531 212.953125 63.691406 213.128906 63.515625 C 213.304688 63.339844 213.507812 63.207031 213.738281 63.109375 C 213.96875 63.015625 214.207031 62.96875 214.457031 62.96875 C 214.707031 62.96875 214.945312 63.015625 215.175781 63.109375 C 215.40625 63.207031 215.609375 63.339844 215.785156 63.515625 C 215.960938 63.691406 216.097656 63.894531 216.191406 64.125 C 216.285156 64.355469 216.335938 64.59375 216.335938 64.84375 C 216.335938 65.089844 216.285156 65.332031 216.191406 65.558594 C 216.097656 65.789062 215.960938 65.992188 215.785156 66.167969 C 215.609375 66.34375 215.40625 66.480469 215.175781 66.574219 C 214.945312 66.671875 214.707031 66.71875 214.457031 66.71875 C 214.207031 66.71875 213.96875 66.671875 213.738281 66.574219 C 213.507812 66.480469 213.304688 66.34375 213.128906 66.167969 C 212.953125 65.992188 212.820312 65.789062 212.722656 65.558594 C 212.628906 65.332031 212.582031 65.089844 212.582031 64.84375 Z M 205.074219 64.84375 C 205.074219 64.59375 205.121094 64.355469 205.21875 64.125 C 205.3125 63.894531 205.449219 63.691406 205.625 63.515625 C 205.800781 63.339844 206.003906 63.207031 206.234375 63.109375 C 206.460938 63.015625 206.703125 62.96875 206.949219 62.96875 C 207.199219 62.96875 207.4375 63.015625 207.667969 63.109375 C 207.898438 63.207031 208.101562 63.339844 208.277344 63.515625 C 208.453125 63.691406 208.589844 63.894531 208.683594 64.125 C 208.78125 64.355469 208.828125 64.59375 208.828125 64.84375 C 208.828125 65.089844 208.78125 65.332031 208.683594 65.558594 C 208.589844 65.789062 208.453125 65.992188 208.277344 66.167969 C 208.101562 66.34375 207.898438 66.480469 207.667969 66.574219 C 207.4375 66.671875 207.199219 66.71875 206.949219 66.71875 C 206.703125 66.71875 206.460938 66.671875 206.234375 66.574219 C 206.003906 66.480469 205.800781 66.34375 205.625 66.167969 C 205.449219 65.992188 205.3125 65.789062 205.21875 65.558594 C 205.121094 65.332031 205.074219 65.089844 205.074219 64.84375 Z M 197.566406 64.84375 C 197.566406 64.59375 197.613281 64.355469 197.710938 64.125 C 197.804688 63.894531 197.941406 63.691406 198.117188 63.515625 C 198.292969 63.339844 198.496094 63.207031 198.726562 63.109375 C 198.957031 63.015625 199.195312 62.96875 199.445312 62.96875 C 199.691406 62.96875 199.933594 63.015625 200.164062 63.109375 C 200.390625 63.207031 200.59375 63.339844 200.769531 63.515625 C 200.945312 63.691406 201.082031 63.894531 201.179688 64.125 C 201.273438 64.355469 201.320312 64.59375 201.320312 64.84375 C 201.320312 65.089844 201.273438 65.332031 201.179688 65.558594 C 201.082031 65.789062 200.945312 65.992188 200.769531 66.167969 C 200.59375 66.34375 200.390625 66.480469 200.164062 66.574219 C 199.933594 66.671875 199.691406 66.71875 199.445312 66.71875 C 199.195312 66.71875 198.957031 66.671875 198.726562 66.574219 C 198.496094 66.480469 198.292969 66.34375 198.117188 66.167969 C 197.941406 65.992188 197.804688 65.789062 197.710938 65.558594 C 197.613281 65.332031 197.566406 65.089844 197.566406 64.84375 Z M 190.0625 64.84375 C 190.0625 64.59375 190.109375 64.355469 190.203125 64.125 C 190.296875 63.894531 190.433594 63.691406 190.609375 63.515625 C 190.785156 63.339844 190.988281 63.207031 191.21875 63.109375 C 191.449219 63.015625 191.6875 62.96875 191.9375 62.96875 C 192.1875 62.96875 192.425781 63.015625 192.65625 63.109375 C 192.886719 63.207031 193.089844 63.339844 193.265625 63.515625 C 193.441406 63.691406 193.574219 63.894531 193.671875 64.125 C 193.765625 64.355469 193.8125 64.59375 193.8125 64.84375 C 193.8125 65.089844 193.765625 65.332031 193.671875 65.558594 C 193.574219 65.789062 193.441406 65.992188 193.265625 66.167969 C 193.089844 66.34375 192.886719 66.480469 192.65625 66.574219 C 192.425781 66.671875 192.1875 66.71875 191.9375 66.71875 C 191.6875 66.71875 191.449219 66.671875 191.21875 66.574219 C 190.988281 66.480469 190.785156 66.34375 190.609375 66.167969 C 190.433594 65.992188 190.296875 65.789062 190.203125 65.558594 C 190.109375 65.332031 190.0625 65.089844 190.0625 64.84375 Z M 182.554688 64.84375 C 182.554688 64.59375 182.601562 64.355469 182.695312 64.125 C 182.792969 63.894531 182.925781 63.691406 183.105469 63.515625 C 183.28125 63.339844 183.484375 63.207031 183.710938 63.109375 C 183.941406 63.015625 184.183594 62.96875 184.429688 62.96875 C 184.679688 62.96875 184.917969 63.015625 185.148438 63.109375 C 185.378906 63.207031 185.582031 63.339844 185.757812 63.515625 C 185.933594 63.691406 186.070312 63.894531 186.164062 64.125 C 186.257812 64.355469 186.308594 64.59375 186.308594 64.84375 C 186.308594 65.089844 186.257812 65.332031 186.164062 65.558594 C 186.070312 65.789062 185.933594 65.992188 185.757812 66.167969 C 185.582031 66.34375 185.378906 66.480469 185.148438 66.574219 C 184.917969 66.671875 184.679688 66.71875 184.429688 66.71875 C 184.183594 66.71875 183.941406 66.671875 183.710938 66.574219 C 183.484375 66.480469 183.28125 66.34375 183.105469 66.167969 C 182.925781 65.992188 182.792969 65.789062 182.695312 65.558594 C 182.601562 65.332031 182.554688 65.089844 182.554688 64.84375 Z M 175.046875 64.84375 C 175.046875 64.59375 175.09375 64.355469 175.191406 64.125 C 175.285156 63.894531 175.421875 63.691406 175.597656 63.515625 C 175.773438 63.339844 175.976562 63.207031 176.207031 63.109375 C 176.4375 63.015625 176.675781 62.96875 176.925781 62.96875 C 177.171875 62.96875 177.410156 63.015625 177.640625 63.109375 C 177.871094 63.207031 178.074219 63.339844 178.25 63.515625 C 178.425781 63.691406 178.5625 63.894531 178.65625 64.125 C 178.753906 64.355469 178.800781 64.59375 178.800781 64.84375 C 178.800781 65.089844 178.753906 65.332031 178.65625 65.558594 C 178.5625 65.789062 178.425781 65.992188 178.25 66.167969 C 178.074219 66.34375 177.871094 66.480469 177.640625 66.574219 C 177.410156 66.671875 177.171875 66.71875 176.925781 66.71875 C 176.675781 66.71875 176.4375 66.671875 176.207031 66.574219 C 175.976562 66.480469 175.773438 66.34375 175.597656 66.167969 C 175.421875 65.992188 175.285156 65.789062 175.191406 65.558594 C 175.09375 65.332031 175.046875 65.089844 175.046875 64.84375 Z M 167.539062 64.84375 C 167.539062 64.59375 167.589844 64.355469 167.683594 64.125 C 167.777344 63.894531 167.914062 63.691406 168.089844 63.515625 C 168.265625 63.339844 168.46875 63.207031 168.699219 63.109375 C 168.929688 63.015625 169.167969 62.96875 169.417969 62.96875 C 169.664062 62.96875 169.90625 63.015625 170.136719 63.109375 C 170.363281 63.207031 170.566406 63.339844 170.746094 63.515625 C 170.921875 63.691406 171.054688 63.894531 171.152344 64.125 C 171.246094 64.355469 171.292969 64.59375 171.292969 64.84375 C 171.292969 65.089844 171.246094 65.332031 171.152344 65.558594 C 171.054688 65.789062 170.921875 65.992188 170.746094 66.167969 C 170.566406 66.34375 170.363281 66.480469 170.136719 66.574219 C 169.90625 66.671875 169.664062 66.71875 169.417969 66.71875 C 169.167969 66.71875 168.929688 66.671875 168.699219 66.574219 C 168.46875 66.480469 168.265625 66.34375 168.089844 66.167969 C 167.914062 65.992188 167.777344 65.789062 167.683594 65.558594 C 167.589844 65.332031 167.539062 65.089844 167.539062 64.84375 Z M 160.035156 64.84375 C 160.035156 64.59375 160.082031 64.355469 160.175781 64.125 C 160.273438 63.894531 160.40625 63.691406 160.582031 63.515625 C 160.757812 63.339844 160.960938 63.207031 161.191406 63.109375 C 161.421875 63.015625 161.660156 62.96875 161.910156 62.96875 C 162.160156 62.96875 162.398438 63.015625 162.628906 63.109375 C 162.859375 63.207031 163.0625 63.339844 163.238281 63.515625 C 163.414062 63.691406 163.550781 63.894531 163.644531 64.125 C 163.738281 64.355469 163.785156 64.59375 163.785156 64.84375 C 163.785156 65.089844 163.738281 65.332031 163.644531 65.558594 C 163.550781 65.789062 163.414062 65.992188 163.238281 66.167969 C 163.0625 66.34375 162.859375 66.480469 162.628906 66.574219 C 162.398438 66.671875 162.160156 66.71875 161.910156 66.71875 C 161.660156 66.71875 161.421875 66.671875 161.191406 66.574219 C 160.960938 66.480469 160.757812 66.34375 160.582031 66.167969 C 160.40625 65.992188 160.273438 65.789062 160.175781 65.558594 C 160.082031 65.332031 160.035156 65.089844 160.035156 64.84375 Z M 152.527344 64.84375 C 152.527344 64.59375 152.574219 64.355469 152.667969 64.125 C 152.765625 63.894531 152.902344 63.691406 153.078125 63.515625 C 153.253906 63.339844 153.457031 63.207031 153.6875 63.109375 C 153.914062 63.015625 154.15625 62.96875 154.402344 62.96875 C 154.652344 62.96875 154.890625 63.015625 155.121094 63.109375 C 155.351562 63.207031 155.554688 63.339844 155.730469 63.515625 C 155.90625 63.691406 156.042969 63.894531 156.136719 64.125 C 156.234375 64.355469 156.28125 64.59375 156.28125 64.84375 C 156.28125 65.089844 156.234375 65.332031 156.136719 65.558594 C 156.042969 65.789062 155.90625 65.992188 155.730469 66.167969 C 155.554688 66.34375 155.351562 66.480469 155.121094 66.574219 C 154.890625 66.671875 154.652344 66.71875 154.402344 66.71875 C 154.15625 66.71875 153.914062 66.671875 153.6875 66.574219 C 153.457031 66.480469 153.253906 66.34375 153.078125 66.167969 C 152.902344 65.992188 152.765625 65.789062 152.667969 65.558594 C 152.574219 65.332031 152.527344 65.089844 152.527344 64.84375 Z M 145.019531 64.84375 C 145.019531 64.59375 145.066406 64.355469 145.164062 64.125 C 145.257812 63.894531 145.394531 63.691406 145.570312 63.515625 C 145.746094 63.339844 145.949219 63.207031 146.179688 63.109375 C 146.410156 63.015625 146.648438 62.96875 146.898438 62.96875 C 147.144531 62.96875 147.386719 63.015625 147.613281 63.109375 C 147.84375 63.207031 148.046875 63.339844 148.222656 63.515625 C 148.398438 63.691406 148.535156 63.894531 148.628906 64.125 C 148.726562 64.355469 148.773438 64.59375 148.773438 64.84375 C 148.773438 65.089844 148.726562 65.332031 148.628906 65.558594 C 148.535156 65.789062 148.398438 65.992188 148.222656 66.167969 C 148.046875 66.34375 147.84375 66.480469 147.613281 66.574219 C 147.386719 66.671875 147.144531 66.71875 146.898438 66.71875 C 146.648438 66.71875 146.410156 66.671875 146.179688 66.574219 C 145.949219 66.480469 145.746094 66.34375 145.570312 66.167969 C 145.394531 65.992188 145.257812 65.789062 145.164062 65.558594 C 145.066406 65.332031 145.019531 65.089844 145.019531 64.84375 Z M 137.511719 64.84375 C 137.511719 64.59375 137.5625 64.355469 137.65625 64.125 C 137.75 63.894531 137.886719 63.691406 138.0625 63.515625 C 138.238281 63.339844 138.441406 63.207031 138.671875 63.109375 C 138.902344 63.015625 139.140625 62.96875 139.390625 62.96875 C 139.640625 62.96875 139.878906 63.015625 140.109375 63.109375 C 140.339844 63.207031 140.542969 63.339844 140.71875 63.515625 C 140.894531 63.691406 141.027344 63.894531 141.125 64.125 C 141.21875 64.355469 141.265625 64.59375 141.265625 64.84375 C 141.265625 65.089844 141.21875 65.332031 141.125 65.558594 C 141.027344 65.789062 140.894531 65.992188 140.71875 66.167969 C 140.542969 66.34375 140.339844 66.480469 140.109375 66.574219 C 139.878906 66.671875 139.640625 66.71875 139.390625 66.71875 C 139.140625 66.71875 138.902344 66.671875 138.671875 66.574219 C 138.441406 66.480469 138.238281 66.34375 138.0625 66.167969 C 137.886719 65.992188 137.75 65.789062 137.65625 65.558594 C 137.5625 65.332031 137.511719 65.089844 137.511719 64.84375 Z M 130.007812 64.84375 C 130.007812 64.59375 130.054688 64.355469 130.148438 64.125 C 130.246094 63.894531 130.378906 63.691406 130.554688 63.515625 C 130.734375 63.339844 130.933594 63.207031 131.164062 63.109375 C 131.394531 63.015625 131.636719 62.96875 131.882812 62.96875 C 132.132812 62.96875 132.371094 63.015625 132.601562 63.109375 C 132.832031 63.207031 133.035156 63.339844 133.210938 63.515625 C 133.386719 63.691406 133.523438 63.894531 133.617188 64.125 C 133.710938 64.355469 133.761719 64.59375 133.761719 64.84375 C 133.761719 65.089844 133.710938 65.332031 133.617188 65.558594 C 133.523438 65.789062 133.386719 65.992188 133.210938 66.167969 C 133.035156 66.34375 132.832031 66.480469 132.601562 66.574219 C 132.371094 66.671875 132.132812 66.71875 131.882812 66.71875 C 131.636719 66.71875 131.394531 66.671875 131.164062 66.574219 C 130.933594 66.480469 130.734375 66.34375 130.554688 66.167969 C 130.378906 65.992188 130.246094 65.789062 130.148438 65.558594 C 130.054688 65.332031 130.007812 65.089844 130.007812 64.84375 Z M 122.5 64.84375 C 122.5 64.59375 122.546875 64.355469 122.644531 64.125 C 122.738281 63.894531 122.875 63.691406 123.050781 63.515625 C 123.226562 63.339844 123.429688 63.207031 123.660156 63.109375 C 123.890625 63.015625 124.128906 62.96875 124.375 62.96875 C 124.625 62.96875 124.863281 63.015625 125.09375 63.109375 C 125.324219 63.207031 125.527344 63.339844 125.703125 63.515625 C 125.878906 63.691406 126.015625 63.894531 126.109375 64.125 C 126.207031 64.355469 126.253906 64.59375 126.253906 64.84375 C 126.253906 65.089844 126.207031 65.332031 126.109375 65.558594 C 126.015625 65.789062 125.878906 65.992188 125.703125 66.167969 C 125.527344 66.34375 125.324219 66.480469 125.09375 66.574219 C 124.863281 66.671875 124.625 66.71875 124.375 66.71875 C 124.128906 66.71875 123.890625 66.671875 123.660156 66.574219 C 123.429688 66.480469 123.226562 66.34375 123.050781 66.167969 C 122.875 65.992188 122.738281 65.789062 122.644531 65.558594 C 122.546875 65.332031 122.5 65.089844 122.5 64.84375 Z M 114.992188 64.84375 C 114.992188 64.59375 115.042969 64.355469 115.136719 64.125 C 115.230469 63.894531 115.367188 63.691406 115.542969 63.515625 C 115.71875 63.339844 115.921875 63.207031 116.152344 63.109375 C 116.382812 63.015625 116.621094 62.96875 116.871094 62.96875 C 117.117188 62.96875 117.359375 63.015625 117.589844 63.109375 C 117.816406 63.207031 118.019531 63.339844 118.195312 63.515625 C 118.375 63.691406 118.507812 63.894531 118.605469 64.125 C 118.699219 64.355469 118.746094 64.59375 118.746094 64.84375 C 118.746094 65.089844 118.699219 65.332031 118.605469 65.558594 C 118.507812 65.789062 118.375 65.992188 118.195312 66.167969 C 118.019531 66.34375 117.816406 66.480469 117.589844 66.574219 C 117.359375 66.671875 117.117188 66.71875 116.871094 66.71875 C 116.621094 66.71875 116.382812 66.671875 116.152344 66.574219 C 115.921875 66.480469 115.71875 66.34375 115.542969 66.167969 C 115.367188 65.992188 115.230469 65.789062 115.136719 65.558594 C 115.042969 65.332031 114.992188 65.089844 114.992188 64.84375 Z M 107.488281 64.84375 C 107.488281 64.59375 107.535156 64.355469 107.628906 64.125 C 107.726562 63.894531 107.859375 63.691406 108.035156 63.515625 C 108.210938 63.339844 108.414062 63.207031 108.644531 63.109375 C 108.875 63.015625 109.113281 62.96875 109.363281 62.96875 C 109.613281 62.96875 109.851562 63.015625 110.082031 63.109375 C 110.3125 63.207031 110.515625 63.339844 110.691406 63.515625 C 110.867188 63.691406 111.003906 63.894531 111.097656 64.125 C 111.191406 64.355469 111.238281 64.59375 111.238281 64.84375 C 111.238281 65.089844 111.191406 65.332031 111.097656 65.558594 C 111.003906 65.789062 110.867188 65.992188 110.691406 66.167969 C 110.515625 66.34375 110.3125 66.480469 110.082031 66.574219 C 109.851562 66.671875 109.613281 66.71875 109.363281 66.71875 C 109.113281 66.71875 108.875 66.671875 108.644531 66.574219 C 108.414062 66.480469 108.210938 66.34375 108.035156 66.167969 C 107.859375 65.992188 107.726562 65.789062 107.628906 65.558594 C 107.535156 65.332031 107.488281 65.089844 107.488281 64.84375 Z M 99.980469 64.84375 C 99.980469 64.59375 100.027344 64.355469 100.121094 64.125 C 100.21875 63.894531 100.355469 63.691406 100.53125 63.515625 C 100.707031 63.339844 100.910156 63.207031 101.136719 63.109375 C 101.367188 63.015625 101.609375 62.96875 101.855469 62.96875 C 102.105469 62.96875 102.34375 63.015625 102.574219 63.109375 C 102.804688 63.207031 103.007812 63.339844 103.183594 63.515625 C 103.359375 63.691406 103.496094 63.894531 103.589844 64.125 C 103.6875 64.355469 103.734375 64.59375 103.734375 64.84375 C 103.734375 65.089844 103.6875 65.332031 103.589844 65.558594 C 103.496094 65.789062 103.359375 65.992188 103.183594 66.167969 C 103.007812 66.34375 102.804688 66.480469 102.574219 66.574219 C 102.34375 66.671875 102.105469 66.71875 101.855469 66.71875 C 101.609375 66.71875 101.367188 66.671875 101.136719 66.574219 C 100.910156 66.480469 100.707031 66.34375 100.53125 66.167969 C 100.355469 65.992188 100.21875 65.789062 100.121094 65.558594 C 100.027344 65.332031 99.980469 65.089844 99.980469 64.84375 Z M 92.472656 64.84375 C 92.472656 64.59375 92.519531 64.355469 92.617188 64.125 C 92.710938 63.894531 92.847656 63.691406 93.023438 63.515625 C 93.199219 63.339844 93.402344 63.207031 93.632812 63.109375 C 93.863281 63.015625 94.101562 62.96875 94.351562 62.96875 C 94.597656 62.96875 94.839844 63.015625 95.066406 63.109375 C 95.296875 63.207031 95.5 63.339844 95.675781 63.515625 C 95.851562 63.691406 95.988281 63.894531 96.082031 64.125 C 96.179688 64.355469 96.226562 64.59375 96.226562 64.84375 C 96.226562 65.089844 96.179688 65.332031 96.082031 65.558594 C 95.988281 65.789062 95.851562 65.992188 95.675781 66.167969 C 95.5 66.34375 95.296875 66.480469 95.066406 66.574219 C 94.839844 66.671875 94.597656 66.71875 94.351562 66.71875 C 94.101562 66.71875 93.863281 66.671875 93.632812 66.574219 C 93.402344 66.480469 93.199219 66.34375 93.023438 66.167969 C 92.847656 65.992188 92.710938 65.789062 92.617188 65.558594 C 92.519531 65.332031 92.472656 65.089844 92.472656 64.84375 Z M 84.964844 64.84375 C 84.964844 64.59375 85.015625 64.355469 85.109375 64.125 C 85.203125 63.894531 85.339844 63.691406 85.515625 63.515625 C 85.691406 63.339844 85.894531 63.207031 86.125 63.109375 C 86.355469 63.015625 86.59375 62.96875 86.84375 62.96875 C 87.09375 62.96875 87.332031 63.015625 87.5625 63.109375 C 87.792969 63.207031 87.996094 63.339844 88.171875 63.515625 C 88.347656 63.691406 88.480469 63.894531 88.578125 64.125 C 88.671875 64.355469 88.71875 64.59375 88.71875 64.84375 C 88.71875 65.089844 88.671875 65.332031 88.578125 65.558594 C 88.480469 65.789062 88.347656 65.992188 88.171875 66.167969 C 87.996094 66.34375 87.792969 66.480469 87.5625 66.574219 C 87.332031 66.671875 87.09375 66.71875 86.84375 66.71875 C 86.59375 66.71875 86.355469 66.671875 86.125 66.574219 C 85.894531 66.480469 85.691406 66.34375 85.515625 66.167969 C 85.339844 65.992188 85.203125 65.789062 85.109375 65.558594 C 85.015625 65.332031 84.964844 65.089844 84.964844 64.84375 Z M 77.460938 64.84375 C 77.460938 64.59375 77.507812 64.355469 77.601562 64.125 C 77.699219 63.894531 77.832031 63.691406 78.007812 63.515625 C 78.1875 63.339844 78.386719 63.207031 78.617188 63.109375 C 78.847656 63.015625 79.085938 62.96875 79.335938 62.96875 C 79.585938 62.96875 79.824219 63.015625 80.054688 63.109375 C 80.285156 63.207031 80.488281 63.339844 80.664062 63.515625 C 80.839844 63.691406 80.976562 63.894531 81.070312 64.125 C 81.164062 64.355469 81.214844 64.59375 81.214844 64.84375 C 81.214844 65.089844 81.164062 65.332031 81.070312 65.558594 C 80.976562 65.789062 80.839844 65.992188 80.664062 66.167969 C 80.488281 66.34375 80.285156 66.480469 80.054688 66.574219 C 79.824219 66.671875 79.585938 66.71875 79.335938 66.71875 C 79.085938 66.71875 78.847656 66.671875 78.617188 66.574219 C 78.386719 66.480469 78.1875 66.34375 78.007812 66.167969 C 77.832031 65.992188 77.699219 65.789062 77.601562 65.558594 C 77.507812 65.332031 77.460938 65.089844 77.460938 64.84375 Z M 69.953125 64.84375 C 69.953125 64.59375 70 64.355469 70.097656 64.125 C 70.191406 63.894531 70.328125 63.691406 70.503906 63.515625 C 70.679688 63.339844 70.882812 63.207031 71.113281 63.109375 C 71.339844 63.015625 71.582031 62.96875 71.828125 62.96875 C 72.078125 62.96875 72.316406 63.015625 72.546875 63.109375 C 72.777344 63.207031 72.980469 63.339844 73.15625 63.515625 C 73.332031 63.691406 73.46875 63.894531 73.5625 64.125 C 73.660156 64.355469 73.707031 64.59375 73.707031 64.84375 C 73.707031 65.089844 73.660156 65.332031 73.5625 65.558594 C 73.46875 65.789062 73.332031 65.992188 73.15625 66.167969 C 72.980469 66.34375 72.777344 66.480469 72.546875 66.574219 C 72.316406 66.671875 72.078125 66.71875 71.828125 66.71875 C 71.582031 66.71875 71.339844 66.671875 71.113281 66.574219 C 70.882812 66.480469 70.679688 66.34375 70.503906 66.167969 C 70.328125 65.992188 70.191406 65.789062 70.097656 65.558594 C 70 65.332031 69.953125 65.089844 69.953125 64.84375 Z M 62.445312 64.84375 C 62.445312 64.59375 62.496094 64.355469 62.589844 64.125 C 62.683594 63.894531 62.820312 63.691406 62.996094 63.515625 C 63.171875 63.339844 63.375 63.207031 63.605469 63.109375 C 63.835938 63.015625 64.074219 62.96875 64.324219 62.96875 C 64.570312 62.96875 64.8125 63.015625 65.042969 63.109375 C 65.269531 63.207031 65.472656 63.339844 65.648438 63.515625 C 65.828125 63.691406 65.960938 63.894531 66.058594 64.125 C 66.152344 64.355469 66.199219 64.59375 66.199219 64.84375 C 66.199219 65.089844 66.152344 65.332031 66.058594 65.558594 C 65.960938 65.789062 65.828125 65.992188 65.648438 66.167969 C 65.472656 66.34375 65.269531 66.480469 65.042969 66.574219 C 64.8125 66.671875 64.570312 66.71875 64.324219 66.71875 C 64.074219 66.71875 63.835938 66.671875 63.605469 66.574219 C 63.375 66.480469 63.171875 66.34375 62.996094 66.167969 C 62.820312 65.992188 62.683594 65.789062 62.589844 65.558594 C 62.496094 65.332031 62.445312 65.089844 62.445312 64.84375 Z M 54.941406 64.84375 C 54.941406 64.59375 54.988281 64.355469 55.082031 64.125 C 55.179688 63.894531 55.3125 63.691406 55.488281 63.515625 C 55.664062 63.339844 55.867188 63.207031 56.097656 63.109375 C 56.328125 63.015625 56.566406 62.96875 56.816406 62.96875 C 57.066406 62.96875 57.304688 63.015625 57.535156 63.109375 C 57.765625 63.207031 57.96875 63.339844 58.144531 63.515625 C 58.320312 63.691406 58.457031 63.894531 58.550781 64.125 C 58.644531 64.355469 58.691406 64.59375 58.691406 64.84375 C 58.691406 65.089844 58.644531 65.332031 58.550781 65.558594 C 58.457031 65.789062 58.320312 65.992188 58.144531 66.167969 C 57.96875 66.34375 57.765625 66.480469 57.535156 66.574219 C 57.304688 66.671875 57.066406 66.71875 56.816406 66.71875 C 56.566406 66.71875 56.328125 66.671875 56.097656 66.574219 C 55.867188 66.480469 55.664062 66.34375 55.488281 66.167969 C 55.3125 65.992188 55.179688 65.789062 55.082031 65.558594 C 54.988281 65.332031 54.941406 65.089844 54.941406 64.84375 Z M 47.433594 64.84375 C 47.433594 64.59375 47.480469 64.355469 47.574219 64.125 C 47.671875 63.894531 47.808594 63.691406 47.984375 63.515625 C 48.160156 63.339844 48.363281 63.207031 48.589844 63.109375 C 48.820312 63.015625 49.0625 62.96875 49.308594 62.96875 C 49.558594 62.96875 49.796875 63.015625 50.027344 63.109375 C 50.257812 63.207031 50.460938 63.339844 50.636719 63.515625 C 50.8125 63.691406 50.949219 63.894531 51.042969 64.125 C 51.140625 64.355469 51.1875 64.59375 51.1875 64.84375 C 51.1875 65.089844 51.140625 65.332031 51.042969 65.558594 C 50.949219 65.789062 50.8125 65.992188 50.636719 66.167969 C 50.460938 66.34375 50.257812 66.480469 50.027344 66.574219 C 49.796875 66.671875 49.558594 66.71875 49.308594 66.71875 C 49.0625 66.71875 48.820312 66.671875 48.589844 66.574219 C 48.363281 66.480469 48.160156 66.34375 47.984375 66.167969 C 47.808594 65.992188 47.671875 65.789062 47.574219 65.558594 C 47.480469 65.332031 47.433594 65.089844 47.433594 64.84375 Z M 39.925781 64.84375 C 39.925781 64.59375 39.972656 64.355469 40.070312 64.125 C 40.164062 63.894531 40.300781 63.691406 40.476562 63.515625 C 40.652344 63.339844 40.855469 63.207031 41.085938 63.109375 C 41.316406 63.015625 41.554688 62.96875 41.804688 62.96875 C 42.050781 62.96875 42.292969 63.015625 42.519531 63.109375 C 42.75 63.207031 42.953125 63.339844 43.128906 63.515625 C 43.304688 63.691406 43.441406 63.894531 43.535156 64.125 C 43.632812 64.355469 43.679688 64.59375 43.679688 64.84375 C 43.679688 65.089844 43.632812 65.332031 43.535156 65.558594 C 43.441406 65.789062 43.304688 65.992188 43.128906 66.167969 C 42.953125 66.34375 42.75 66.480469 42.519531 66.574219 C 42.292969 66.671875 42.050781 66.71875 41.804688 66.71875 C 41.554688 66.71875 41.316406 66.671875 41.085938 66.574219 C 40.855469 66.480469 40.652344 66.34375 40.476562 66.167969 C 40.300781 65.992188 40.164062 65.789062 40.070312 65.558594 C 39.972656 65.332031 39.925781 65.089844 39.925781 64.84375 Z M 39.925781 64.84375 "/>
</g>
</svg>
