<?xml version="1.0" encoding="UTF-8"?>
<svg xmlns="http://www.w3.org/2000/svg" xmlns:xlink="http://www.w3.org/1999/xlink" width="375pt" height="374.999991pt" viewBox="0 0 375 374.999991" version="1.2">
<defs>
<clipPath id="clip1">
  <path d="M 88.011719 170 L 137 170 L 137 283 L 88.011719 283 Z M 88.011719 170 "/>
</clipPath>
<clipPath id="clip2">
  <path d="M 137 250 L 271 250 L 271 297.972656 L 137 297.972656 Z M 137 250 "/>
</clipPath>
<clipPath id="clip3">
  <path d="M 212 105.972656 L 221 105.972656 L 221 111 L 212 111 Z M 212 105.972656 "/>
</clipPath>
<clipPath id="clip4">
  <path d="M 268 270 L 275 270 L 275 276.980469 L 268 276.980469 Z M 268 270 "/>
</clipPath>
<clipPath id="clip5">
  <path d="M 163.238281 112.5 L 274 112.5 L 274 262.5 L 163.238281 262.5 Z M 163.238281 112.5 "/>
</clipPath>
<clipPath id="clip6">
  <path d="M 101.019531 126.980469 L 198.519531 126.980469 L 198.519531 276.980469 L 101.019531 276.980469 Z M 101.019531 126.980469 "/>
</clipPath>
</defs>
<g id="surface1">
<g clip-path="url(#clip1)" clip-rule="nonzero">
<path style=" stroke:none;fill-rule:nonzero;fill:rgb(100%,100%,100%);fill-opacity:1;" d="M 88.496094 202.664062 C 88.753906 198.203125 88.199219 193.660156 89.660156 189.300781 C 89.769531 188.984375 89.847656 188.636719 89.835938 188.3125 C 89.640625 182.625 92.269531 177.667969 93.949219 172.472656 C 94.464844 170.871094 95.585938 170.011719 96.195312 170.511719 C 97.160156 171.304688 96.894531 172.398438 96.542969 173.304688 C 95.335938 176.394531 95.34375 179.679688 94.878906 182.886719 C 94.652344 184.4375 94.558594 186.011719 94.316406 187.5625 C 93.6875 191.578125 93.789062 195.597656 94.050781 199.628906 C 94.089844 200.191406 94.171875 200.753906 94.144531 201.308594 C 93.886719 206.433594 95.085938 211.363281 96.367188 216.234375 C 97.53125 220.664062 99.328125 224.933594 100.449219 229.371094 C 101.585938 233.871094 103.78125 237.921875 105.335938 242.242188 C 107.542969 248.371094 110.710938 254.019531 114.71875 259.238281 C 119.804688 265.863281 125.671875 271.671875 131.875 277.203125 C 133.171875 278.359375 134.730469 278.945312 136.210938 279.722656 C 136.765625 280.015625 136.929688 280.566406 136.8125 281.164062 C 136.6875 281.824219 135.945312 282.351562 135.3125 282.21875 C 134.878906 282.132812 134.421875 282.027344 134.042969 281.8125 C 132.292969 280.820312 130.480469 279.90625 128.84375 278.75 C 125.269531 276.21875 121.949219 273.375 118.878906 270.246094 C 118.25 269.605469 117.671875 268.890625 116.960938 268.359375 C 113.023438 265.441406 110.375 261.363281 107.273438 257.691406 C 106.476562 256.75 105.785156 255.738281 105.222656 254.621094 C 104.722656 253.625 104.136719 252.644531 103.445312 251.765625 C 101.300781 249.035156 99.128906 246.328125 97.855469 243.039062 C 94.097656 237.585938 91.921875 231.519531 90.695312 225.042969 C 89.691406 219.746094 88.730469 214.449219 88.511719 209.050781 C 88.425781 206.925781 88.496094 204.792969 88.496094 202.664062 "/>
</g>
<g clip-path="url(#clip2)" clip-rule="nonzero">
<path style=" stroke:none;fill-rule:nonzero;fill:rgb(100%,100%,100%);fill-opacity:1;" d="M 185.757812 297.761719 C 179.683594 297.964844 174.019531 297.53125 168.425781 296.125 C 165.824219 295.472656 163.140625 295.152344 160.503906 294.628906 C 157.851562 294.097656 155.316406 293.214844 152.9375 291.898438 C 152.351562 291.570312 151.746094 291.238281 151.109375 291.058594 C 147.628906 290.070312 144.574219 288.167969 141.34375 286.644531 C 139.964844 285.996094 138.949219 285.007812 138.007812 283.898438 C 137.832031 283.695312 137.777344 283.226562 137.886719 282.984375 C 137.996094 282.738281 138.410156 282.445312 138.644531 282.476562 C 140.191406 282.691406 141.839844 282.6875 143.195312 283.523438 C 144.761719 284.484375 146.503906 284.871094 148.191406 285.441406 C 152.640625 286.949219 157.074219 288.484375 161.515625 290.003906 C 161.730469 290.078125 161.949219 290.179688 162.164062 290.175781 C 166.15625 290.132812 169.773438 292.039062 173.6875 292.375 C 174.714844 292.460938 175.6875 292.738281 176.558594 293.261719 C 177.976562 294.121094 179.515625 294.269531 181.097656 294.152344 C 182.667969 294.035156 184.214844 294.160156 185.78125 294.28125 C 188.234375 294.480469 190.714844 294.566406 193.144531 293.933594 C 193.578125 293.820312 194.035156 293.742188 194.476562 293.753906 C 198.324219 293.871094 202.070312 292.941406 205.785156 292.25 C 212.160156 291.0625 218.628906 289.78125 224.457031 286.800781 C 228.023438 284.976562 231.683594 283.253906 235.03125 280.976562 C 237.246094 279.46875 239.609375 278.183594 241.90625 276.800781 C 242.480469 276.453125 243.109375 276.179688 243.621094 275.757812 C 249.414062 270.964844 255.117188 266.078125 260.183594 260.492188 C 261.332031 259.222656 262.328125 257.90625 262.890625 256.28125 C 263.699219 253.925781 265.550781 252.457031 267.386719 250.976562 C 267.644531 250.769531 267.96875 250.636719 268.277344 250.511719 C 269.089844 250.179688 269.980469 250.367188 270.433594 250.9375 C 270.898438 251.519531 270.925781 252.457031 270.386719 253.128906 C 269.6875 254.003906 268.863281 254.777344 268.171875 255.65625 C 265.894531 258.558594 263.691406 261.523438 261.382812 264.398438 C 259.554688 266.671875 257.726562 268.953125 255.699219 271.035156 C 254.0625 272.714844 252.203125 274.199219 250.320312 275.609375 C 247.007812 278.089844 243.875 280.816406 240.292969 282.960938 C 237.511719 284.625 234.5 285.929688 232.019531 288.085938 C 231.695312 288.367188 231.230469 288.523438 230.804688 288.644531 C 225.105469 290.308594 219.761719 293.09375 213.8125 293.964844 C 213.160156 294.0625 212.492188 294.296875 211.910156 294.609375 C 209.582031 295.867188 207.03125 296.265625 204.464844 296.519531 C 201.34375 296.824219 198.210938 297.007812 195.085938 297.246094 C 194.414062 297.296875 193.707031 297.246094 193.085938 297.445312 C 191.757812 297.867188 190.453125 297.828125 189.097656 297.683594 C 187.878906 297.550781 186.632812 297.410156 185.757812 297.761719 "/>
</g>
<path style=" stroke:none;fill-rule:nonzero;fill:rgb(100%,100%,100%);fill-opacity:1;" d="M 285.601562 200.746094 C 285.601562 200.894531 285.550781 201.238281 285.605469 201.566406 C 286.527344 207.335938 284.898438 212.933594 284.453125 218.609375 C 284.402344 219.261719 284.089844 219.894531 283.886719 220.535156 C 283.574219 221.496094 283.152344 222.433594 282.949219 223.414062 C 282.066406 227.714844 280.378906 231.773438 279.277344 236.007812 C 279.082031 236.761719 278.851562 237.554688 278.433594 238.195312 C 277.140625 240.183594 276.242188 242.359375 275.230469 244.484375 C 274.496094 246.03125 273.460938 247.339844 271.882812 248.136719 C 270.457031 248.863281 269.054688 248.003906 269.171875 246.410156 C 269.21875 245.757812 269.410156 245.082031 269.691406 244.488281 C 270.40625 242.972656 271.167969 241.472656 271.921875 239.980469 C 273.183594 237.492188 274.039062 234.800781 275.066406 232.195312 C 277.300781 226.527344 278.566406 220.597656 279.554688 214.617188 C 280.042969 211.640625 280.253906 208.601562 280.367188 205.578125 C 280.523438 201.433594 280.441406 197.277344 280.503906 193.128906 C 280.582031 188.050781 279.851562 183.066406 278.871094 178.109375 C 278.460938 176.019531 278.019531 173.9375 277.644531 171.839844 C 277.316406 169.996094 276.414062 168.253906 275.738281 166.476562 C 275.496094 165.832031 275.339844 165.199219 275.5 164.507812 C 275.679688 163.722656 276.738281 163.261719 277.359375 163.785156 C 277.859375 164.210938 278.367188 164.699219 278.675781 165.269531 C 279.695312 167.152344 280.554688 169.113281 280.679688 171.292969 C 280.746094 172.433594 281.019531 173.480469 281.507812 174.519531 C 282.414062 176.453125 283.144531 178.476562 283.445312 180.59375 C 284.140625 185.457031 285.679688 190.203125 285.378906 195.207031 C 285.269531 196.992188 286.078125 198.746094 285.601562 200.746094 "/>
<path style=" stroke:none;fill-rule:nonzero;fill:rgb(100%,100%,100%);fill-opacity:1;" d="M 108.71875 146.789062 C 108.582031 147.160156 108.402344 147.929688 108.042969 148.609375 C 106.945312 150.679688 105.800781 152.722656 104.640625 154.757812 C 103.585938 156.597656 102.515625 158.425781 101.398438 160.226562 C 100.675781 161.390625 100.367188 162.683594 99.976562 163.964844 C 99.617188 165.148438 99.128906 166.292969 98.050781 167.023438 C 97.695312 167.261719 97.253906 167.398438 96.832031 167.515625 C 96.328125 167.648438 95.644531 167.0625 95.710938 166.558594 C 95.769531 166.117188 95.839844 165.667969 96 165.257812 C 97.796875 160.703125 99.503906 156.089844 101.882812 151.800781 C 103.171875 149.476562 104.921875 147.40625 106.511719 145.253906 C 106.859375 144.785156 107.460938 144.664062 108.019531 144.992188 C 108.542969 145.300781 108.765625 145.792969 108.71875 146.789062 "/>
<path style=" stroke:none;fill-rule:nonzero;fill:rgb(100%,100%,100%);fill-opacity:1;" d="M 253.890625 129.199219 C 253.6875 129.394531 253.558594 129.601562 253.378906 129.664062 C 253.1875 129.730469 252.867188 129.742188 252.742188 129.625 C 250.234375 127.289062 246.558594 126.40625 244.75 123.1875 C 244.355469 122.484375 243.566406 122.207031 242.9375 121.753906 C 241.21875 120.519531 239.578125 119.183594 237.925781 117.859375 C 237.679688 117.660156 237.535156 117.285156 237.78125 116.988281 C 238.023438 116.695312 238.410156 116.726562 238.691406 116.898438 C 240.195312 117.828125 241.996094 118.332031 242.984375 119.992188 C 243.46875 120.808594 244.367188 121.074219 245.148438 121.503906 C 247.789062 122.960938 250.367188 124.515625 252.460938 126.738281 C 252.914062 127.222656 253.351562 127.734375 253.714844 128.285156 C 253.878906 128.535156 253.84375 128.914062 253.890625 129.199219 "/>
<g clip-path="url(#clip3)" clip-rule="nonzero">
<path style=" stroke:none;fill-rule:nonzero;fill:rgb(100%,100%,100%);fill-opacity:1;" d="M 213.59375 105.972656 C 215.382812 106.476562 217.203125 106.953125 218.996094 107.511719 C 219.5 107.667969 219.972656 108.011719 220.386719 108.359375 C 220.734375 108.648438 220.890625 109.101562 220.707031 109.5625 C 220.515625 110.027344 220.105469 110.210938 219.632812 110.121094 C 217.207031 109.679688 214.929688 108.875 213 107.277344 C 212.738281 107.0625 212.464844 106.753906 212.703125 106.433594 C 212.867188 106.214844 213.234375 106.148438 213.59375 105.972656 "/>
</g>
<path style=" stroke:none;fill-rule:nonzero;fill:rgb(100%,100%,100%);fill-opacity:1;" d="M 263.140625 139.324219 C 262.910156 139.46875 262.722656 139.683594 262.570312 139.664062 C 261.753906 139.546875 261.1875 138.984375 260.699219 138.386719 C 259.792969 137.261719 258.84375 136.21875 257.574219 135.472656 C 256.800781 135.015625 256.234375 134.285156 256.113281 133.347656 C 256.074219 133.058594 256.164062 132.652344 256.355469 132.464844 C 256.546875 132.273438 256.964844 132.179688 257.246094 132.238281 C 258.261719 132.453125 259.136719 132.976562 259.554688 133.957031 C 260.304688 135.714844 261.308594 137.25 262.828125 138.445312 C 263.035156 138.609375 263.042969 139.035156 263.140625 139.324219 "/>
<path style=" stroke:none;fill-rule:nonzero;fill:rgb(100%,100%,100%);fill-opacity:1;" d="M 232.929688 114.488281 C 232.738281 114.652344 232.53125 114.96875 232.265625 115.027344 C 231.304688 115.246094 230.566406 114.839844 230.167969 113.90625 C 229.957031 113.417969 230.21875 113.027344 230.652344 112.847656 C 231.507812 112.488281 232.324219 112.839844 232.820312 113.757812 C 232.917969 113.933594 232.886719 114.175781 232.929688 114.488281 "/>
<path style=" stroke:none;fill-rule:nonzero;fill:rgb(100%,100%,100%);fill-opacity:1;" d="M 271.527344 152.648438 C 272.351562 152.605469 272.898438 153.101562 273.015625 154.019531 C 273.074219 154.507812 272.867188 154.878906 272.382812 154.988281 C 271.523438 155.1875 270.671875 154.4375 270.710938 153.5 C 270.730469 153.023438 271.039062 152.722656 271.527344 152.648438 "/>
<path style=" stroke:none;fill-rule:nonzero;fill:rgb(100%,100%,100%);fill-opacity:1;" d="M 95.203125 244.53125 C 95.304688 244.019531 95.644531 243.777344 96.132812 243.816406 C 96.746094 243.863281 97.167969 244.207031 97.195312 244.84375 C 97.21875 245.335938 96.898438 245.675781 96.429688 245.75 C 95.777344 245.851562 95.15625 245.199219 95.203125 244.53125 "/>
<path style=" stroke:none;fill-rule:nonzero;fill:rgb(100%,100%,100%);fill-opacity:1;" d="M 225.921875 111.394531 C 225.730469 111.71875 225.425781 111.785156 225.097656 111.699219 C 224.753906 111.609375 224.503906 111.355469 224.625 110.996094 C 224.742188 110.640625 225.101562 110.597656 225.429688 110.691406 C 225.761719 110.789062 225.972656 111.011719 225.921875 111.394531 "/>
<path style=" stroke:none;fill-rule:nonzero;fill:rgb(100%,34.118652%,34.118652%);fill-opacity:1;" d="M 93.429688 164.023438 C 93.382812 163.789062 92.761719 165.058594 92.363281 166.511719 C 92.046875 168.007812 91.90625 169.183594 92.132812 168.789062 C 92.253906 168.582031 92.511719 167.671875 92.707031 167.078125 C 93.042969 165.621094 93.53125 164.273438 93.429688 164.023438 Z M 90.589844 175.492188 C 90.554688 175.535156 90.421875 176.042969 90.332031 176.347656 C 90.335938 176.546875 90.320312 176.945312 90.351562 176.890625 C 90.386719 176.839844 90.445312 176.324219 90.554688 176.027344 C 90.570312 175.828125 90.625 175.441406 90.589844 175.492188 Z M 291.453125 224.339844 C 291.210938 224.964844 290.9375 225.679688 290.667969 226.371094 C 291.265625 224.078125 291.917969 221.511719 292.605469 217.980469 C 293.402344 214.644531 294.144531 211.378906 294.289062 208.132812 C 295.449219 198.125 295.101562 187.394531 293.21875 176.917969 C 291.96875 168.625 289.160156 161.023438 286.109375 154.164062 C 284.671875 151.398438 283.117188 148.527344 281.675781 145.40625 C 279.394531 141.707031 277.425781 137.957031 274.683594 134.625 C 273.0625 132.617188 271.535156 130.480469 269.824219 128.484375 L 264.445312 122.707031 C 255.328125 113.507812 244.445312 106.089844 232.527344 100.972656 C 230.488281 99.933594 228.335938 99.171875 226.160156 98.476562 L 219.671875 96.28125 C 215.199219 95.40625 210.835938 93.90625 206.265625 93.570312 C 191.050781 91.457031 175.382812 92.710938 160.699219 97.363281 C 148.792969 101.148438 137.621094 107.335938 127.929688 115.226562 C 126.734375 116.042969 125.726562 117.125 124.660156 118.054688 C 117.15625 124.152344 111.289062 131.972656 106.109375 139.929688 C 98.824219 151.785156 93.890625 165.039062 91.699219 178.8125 C 91.371094 181.898438 90.761719 184.972656 90.679688 188.09375 C 90.660156 191.21875 90.46875 194.34375 90.570312 197.457031 C 90.953125 207.292969 92.890625 217 95.875 226.351562 C 99.039062 235.664062 103.667969 244.40625 109.179688 252.503906 C 109.769531 253.261719 110.359375 254.03125 110.933594 254.773438 L 114.589844 259.648438 L 118.726562 264.121094 C 121.335938 267.246094 124.636719 269.664062 127.605469 272.421875 C 128.480469 273.277344 129.566406 274.09375 130.480469 274.847656 C 131.265625 275.480469 131.101562 275.441406 130.195312 274.800781 C 127.777344 273.273438 125.828125 271.160156 123.621094 269.363281 C 121.390625 267.578125 119.4375 265.503906 117.507812 263.398438 C 115.902344 261.636719 114.097656 259.910156 112.757812 258.027344 C 108.183594 252.65625 104.488281 246.765625 101.773438 243.320312 C 101.027344 242.226562 99.828125 239.960938 98.722656 237.613281 C 98.386719 236.894531 98.136719 236.21875 97.925781 235.65625 C 97.859375 235.46875 97.976562 235.546875 98.113281 235.761719 C 98.429688 236.273438 98.832031 236.929688 99.191406 237.515625 C 99.550781 238.097656 99.945312 238.730469 100.242188 239.214844 C 100.371094 239.40625 100.414062 239.359375 100.375 239.195312 C 100.335938 239.027344 100.160156 238.542969 100.015625 238.257812 C 98.628906 235.742188 97.589844 233.070312 96.589844 230.417969 C 95.664062 228.039062 94.84375 226.421875 94.347656 225.597656 C 94.09375 225.140625 93.859375 224.78125 93.550781 224.085938 C 93.113281 223.089844 92.574219 221.390625 92.03125 219.394531 C 91.792969 218.460938 91.542969 217.492188 91.320312 216.617188 C 90.90625 213.71875 90.492188 210.882812 89.988281 208.113281 C 89.472656 205.34375 89.421875 202.570312 89.003906 199.875 C 88.632812 197.683594 88.617188 195.273438 88.785156 192.792969 C 88.875 190.582031 88.792969 189.097656 88.648438 188.023438 C 88.570312 187.273438 88.386719 186.644531 88.417969 185.792969 C 88.417969 184.945312 88.375 184.039062 88.496094 182.859375 C 88.722656 180.121094 88.917969 177.8125 89.097656 175.6875 C 89.410156 173.574219 89.695312 171.644531 89.988281 169.65625 C 90.136719 168.664062 90.445312 167.066406 90.851562 165.53125 C 91.378906 164.03125 91.941406 162.574219 92.316406 161.773438 C 92.878906 160.632812 93.277344 159.832031 93.808594 158.769531 C 94.648438 156.796875 95.714844 154.234375 96.425781 152.121094 C 96.671875 151.304688 96.742188 150.816406 97.054688 149.890625 C 97.359375 148.988281 97.804688 147.691406 98.296875 146.613281 C 100.492188 142.53125 102.300781 139.003906 104.503906 135.371094 C 104.726562 135.050781 105.203125 134.4375 105.339844 134.300781 C 105.683594 133.957031 106.144531 133.484375 106.121094 133.644531 C 106.078125 133.921875 105.671875 134.683594 105.496094 135.140625 C 104.601562 137.03125 103.664062 139.980469 100.03125 146.125 C 98.878906 148.636719 97.964844 151.136719 96.957031 153.597656 C 96.457031 154.828125 96.25 155.824219 96.625 155.136719 C 96.984375 154.484375 97.441406 153.660156 97.765625 152.9375 L 100.292969 147.269531 C 101.1875 145.40625 102.316406 143.667969 103.3125 141.859375 C 105.21875 138.179688 107.6875 134.859375 110.117188 131.503906 C 111.574219 129.253906 113.464844 127.335938 115.222656 125.3125 C 116.984375 123.292969 118.730469 121.253906 120.777344 119.507812 C 122.203125 118.179688 123.757812 116.730469 125.027344 115.539062 C 129.753906 111.378906 134.792969 107.78125 140.328125 104.757812 C 143.132812 102.972656 146.441406 101.773438 149.417969 100.179688 C 160.082031 95.328125 171.566406 92.410156 183.207031 91.25 C 186.839844 90.957031 190.488281 90.574219 194.15625 90.816406 L 199.65625 90.941406 C 201.480469 91.082031 203.292969 91.375 205.113281 91.582031 C 210.246094 91.976562 215.195312 93.410156 220.210938 94.488281 C 225.042969 96.210938 230.058594 97.480469 234.644531 99.832031 C 237.285156 101.082031 240.132812 102.15625 242.511719 103.632812 C 248.539062 106.753906 254.226562 110.675781 259.355469 115.128906 C 269.304688 123.746094 277.8125 134.152344 283.921875 145.855469 C 285.160156 148.492188 286.558594 151.070312 287.753906 153.742188 L 290.929688 161.957031 C 292.617188 167.570312 294.171875 173.253906 294.976562 179.082031 C 295.390625 181 295.578125 183.109375 295.707031 184.871094 C 296.191406 188.941406 296.535156 193.042969 296.261719 197.167969 C 296.328125 201.300781 295.695312 205.394531 295.09375 209.492188 C 294.96875 210.449219 294.832031 211.503906 294.71875 212.394531 C 293.660156 217.070312 292.917969 220.800781 291.453125 224.339844 "/>
<path style=" stroke:none;fill-rule:nonzero;fill:rgb(100%,34.118652%,34.118652%);fill-opacity:1;" d="M 86.863281 234.40625 C 86.125 232.4375 85.277344 230.488281 84.609375 228.488281 C 84.046875 226.453125 83.488281 224.429688 82.941406 222.445312 C 81.601562 218.109375 81.167969 213.605469 80.324219 209.191406 C 79.765625 204.742188 79.464844 200.246094 79.300781 195.757812 C 79.101562 183.980469 80.996094 172.433594 84.019531 161.339844 C 85.4375 157.265625 86.429688 153.210938 88.414062 149.742188 C 90.453125 145.683594 92.308594 141.367188 94.773438 137.300781 C 95.519531 135.953125 96.246094 134.640625 97.003906 133.273438 C 98.003906 131.46875 99.394531 129.871094 99.464844 129.6875 C 101.226562 127.363281 101.859375 126.53125 102.464844 125.730469 C 103.023438 124.949219 103.699219 123.957031 104.007812 123.433594 C 106.25 120.425781 104.3125 121.167969 101.199219 125.378906 C 99.359375 127.902344 97.238281 130.3125 95.703125 133.144531 C 93.964844 136.402344 91.957031 139.527344 90.339844 142.878906 C 88.84375 146.285156 87.15625 149.640625 85.761719 153.152344 C 81.730469 163.667969 79.363281 174.792969 78.378906 186.011719 C 78.292969 189.726562 78.203125 193.699219 78.273438 197.035156 C 78.585938 200.332031 78.90625 203.675781 79.226562 207.066406 C 79.675781 210.433594 80.375 213.8125 80.941406 217.261719 C 82.382812 223.46875 84.066406 229.636719 86.546875 235.480469 C 87.132812 236.980469 87.613281 237.878906 87.796875 237.945312 C 88.019531 238.019531 87.492188 236.035156 86.863281 234.40625 "/>
<path style=" stroke:none;fill-rule:nonzero;fill:rgb(100%,34.118652%,34.118652%);fill-opacity:1;" d="M 114.757812 117.535156 C 117.550781 115.125 119.964844 112.953125 122.101562 110.90625 C 124.390625 109.039062 126.449219 107.351562 128.285156 105.632812 C 129.757812 104.191406 131.085938 103.050781 132.453125 101.996094 C 134.796875 100.09375 134.109375 100.097656 130.34375 102.019531 C 128.289062 103.097656 126.261719 104.601562 123.597656 106.523438 C 122.777344 107.15625 121.851562 107.871094 121.164062 108.402344 C 119.417969 109.992188 117.769531 111.734375 115.984375 113.433594 C 114.1875 115.117188 112.378906 116.886719 110.691406 118.9375 C 109.179688 120.652344 107.789062 122.628906 107.957031 122.742188 C 108.144531 122.871094 108.445312 122.867188 108.78125 122.828125 C 109.464844 122.757812 111.332031 121.019531 114.757812 117.535156 "/>
<path style=" stroke:none;fill-rule:nonzero;fill:rgb(100%,34.118652%,34.118652%);fill-opacity:1;" d="M 179.503906 77.753906 C 180.039062 77.714844 180.605469 77.667969 181.152344 77.625 C 188.292969 76.820312 195.472656 76.910156 202.644531 77.511719 C 206.402344 78.074219 210.335938 78.324219 214.105469 79.074219 C 215.589844 79.375 217.023438 79.664062 219.027344 80.070312 C 217.503906 79.667969 216.648438 79.449219 215.734375 79.207031 C 195.894531 74.566406 174.550781 76.4375 155.125 82.589844 C 152.054688 83.75 148.953125 84.925781 145.839844 86.101562 L 136.902344 90.519531 L 135.464844 91.257812 C 134.019531 92.160156 132.4375 93.371094 133.242188 92.953125 C 133.945312 92.589844 134.832031 92.140625 135.59375 91.675781 C 149.105469 84.199219 164.089844 79.285156 179.503906 77.753906 "/>
<path style=" stroke:none;fill-rule:nonzero;fill:rgb(100%,34.118652%,34.118652%);fill-opacity:1;" d="M 276.507812 255.816406 C 278.210938 253.507812 279.753906 251.722656 280.789062 249.539062 C 281.582031 248.058594 282.359375 246.285156 281.933594 246.761719 C 281.558594 247.175781 280.960938 247.894531 280.40625 248.800781 C 278.464844 252.242188 275.722656 255.148438 273.441406 258.367188 C 270.886719 261.378906 268.136719 264.25 265.382812 267.105469 C 264.121094 268.21875 262.722656 269.636719 261.425781 270.90625 C 260.546875 271.761719 260.363281 272.25 261.175781 271.605469 C 262.632812 270.429688 264.03125 269.304688 265.683594 267.976562 C 269.449219 264.253906 273.507812 260.246094 276.507812 255.816406 "/>
<path style=" stroke:none;fill-rule:nonzero;fill:rgb(100%,34.118652%,34.118652%);fill-opacity:1;" d="M 298.558594 180.78125 C 299.105469 183.832031 299.390625 185.277344 299.894531 185.359375 C 299.894531 185.359375 300.027344 183.917969 299.972656 182.164062 C 299.761719 179.289062 299.167969 176.324219 298.625 173.371094 C 298.125 170.257812 297.136719 168.320312 296.769531 167.824219 C 296.28125 167.285156 296.09375 167.828125 296.78125 171.085938 C 297.199219 174.402344 297.847656 177.824219 298.558594 180.78125 "/>
<path style=" stroke:none;fill-rule:nonzero;fill:rgb(100%,34.118652%,34.118652%);fill-opacity:1;" d="M 151.363281 87.816406 C 151.203125 87.835938 150.691406 87.976562 150.3125 88.121094 C 148.347656 88.824219 146.382812 89.570312 144.527344 90.554688 L 144.535156 90.578125 L 138.84375 93.390625 C 131.535156 97.496094 130.339844 98.75 131.59375 98.71875 C 131.832031 98.726562 132.09375 98.726562 132.65625 98.523438 C 132.964844 98.410156 133.890625 97.898438 134.621094 97.492188 C 134.867188 97.359375 135.597656 96.878906 135.722656 96.773438 C 136.957031 95.605469 138.804688 94.417969 141.089844 93.140625 C 143.390625 91.914062 145.945312 90.203125 149.042969 89.007812 C 149.902344 88.648438 150.621094 88.304688 151.253906 87.996094 C 151.511719 87.867188 151.527344 87.796875 151.363281 87.816406 "/>
<path style=" stroke:none;fill-rule:nonzero;fill:rgb(100%,34.118652%,34.118652%);fill-opacity:1;" d="M 298.054688 198.589844 C 297.96875 200.804688 297.785156 203.136719 297.363281 205.453125 C 297.28125 206.011719 297.285156 206.824219 297.25 207.523438 C 297.351562 207.410156 297.4375 207.636719 297.550781 207.132812 C 298.3125 203.800781 298.980469 202.085938 299.390625 202.035156 C 299.476562 202.03125 299.574219 201.386719 299.664062 201.042969 C 299.820312 200.46875 299.976562 197.34375 299.902344 195.917969 C 299.847656 194.875 299.75 193.582031 299.644531 193.636719 C 299.285156 193.832031 298.914062 194.507812 298.546875 195.113281 C 298.347656 195.4375 298.171875 196.730469 298.054688 198.589844 "/>
<path style=" stroke:none;fill-rule:nonzero;fill:rgb(100%,34.118652%,34.118652%);fill-opacity:1;" d="M 115.03125 111.386719 C 117.886719 108.722656 120.097656 106.371094 120.34375 105.859375 C 119.886719 106.140625 119.359375 106.269531 118.492188 106.964844 C 116.433594 108.636719 113.640625 111.277344 112.113281 112.957031 C 110.9375 114.242188 110.804688 114.710938 112.167969 113.753906 C 112.769531 113.328125 114.09375 112.25 115.03125 111.386719 "/>
<path style=" stroke:none;fill-rule:nonzero;fill:rgb(100%,34.118652%,34.118652%);fill-opacity:1;" d="M 273.847656 266.863281 C 273.589844 267.121094 272.855469 268.070312 272.339844 268.699219 C 272.402344 268.765625 272.273438 269.054688 272.554688 268.855469 C 273.863281 267.832031 276.386719 265.667969 279.132812 262.050781 C 279.605469 261.402344 280.261719 260.378906 280.363281 260.128906 C 280.460938 259.898438 280.0625 260.246094 279.664062 260.71875 C 277.992188 262.867188 275.921875 264.8125 273.847656 266.863281 "/>
<g clip-path="url(#clip4)" clip-rule="nonzero">
<path style=" stroke:none;fill-rule:nonzero;fill:rgb(100%,34.118652%,34.118652%);fill-opacity:1;" d="M 270.875 273.824219 C 269.378906 275.265625 268.097656 276.695312 268.253906 276.753906 C 268.425781 276.917969 269.601562 276.09375 270.847656 275.191406 C 271.074219 275.027344 271.601562 274.609375 271.773438 274.4375 C 272.382812 273.867188 273.179688 273.015625 273.273438 272.777344 C 273.691406 271.988281 273.972656 271.347656 274.128906 270.847656 C 274.199219 270.4375 272.363281 272.535156 270.875 273.824219 "/>
</g>
<path style=" stroke:none;fill-rule:nonzero;fill:rgb(100%,34.118652%,34.118652%);fill-opacity:1;" d="M 116.515625 121.773438 C 116.371094 122.042969 116.46875 122.09375 116.785156 121.828125 C 117.101562 121.554688 117.828125 120.757812 118.464844 120.28125 C 120.433594 118.453125 121.683594 117.128906 121.90625 116.597656 C 121.976562 116.4375 121.632812 116.601562 121.183594 116.949219 C 120.742188 117.289062 119.867188 118.058594 119.28125 118.617188 C 117.828125 119.945312 116.835938 121.082031 116.515625 121.773438 "/>
<path style=" stroke:none;fill-rule:nonzero;fill:rgb(100%,34.118652%,34.118652%);fill-opacity:1;" d="M 146.117188 93.121094 C 145.945312 93.191406 145.429688 93.40625 145.078125 93.546875 C 144.644531 93.761719 144.160156 93.996094 143.785156 94.179688 C 140.023438 96.175781 139.023438 97.136719 141.835938 96.066406 C 142.320312 95.878906 143.742188 95.207031 144.28125 94.90625 C 146.902344 93.445312 147.652344 92.6875 146.117188 93.121094 "/>
<path style=" stroke:none;fill-rule:nonzero;fill:rgb(100%,34.118652%,34.118652%);fill-opacity:1;" d="M 81.015625 158.449219 C 81.121094 158.078125 81.171875 157.746094 81.132812 157.757812 C 81.089844 157.765625 80.890625 158.242188 80.75 158.542969 C 79.160156 162.492188 78.351562 166.742188 77.566406 170.785156 C 77.5 171.144531 77.496094 171.433594 77.542969 171.40625 C 77.585938 171.382812 77.730469 170.992188 77.828125 170.613281 C 78.914062 166.488281 79.730469 162.324219 81.015625 158.449219 "/>
<path style=" stroke:none;fill-rule:nonzero;fill:rgb(100%,34.118652%,34.118652%);fill-opacity:1;" d="M 98.488281 124.207031 C 99.332031 123.027344 99.601562 122.539062 99.191406 122.984375 C 99.023438 123.164062 98.574219 123.75 98.289062 124.148438 C 96.726562 126.398438 95.015625 128.554688 93.597656 130.894531 L 89.515625 138.015625 C 89.351562 138.304688 89.277344 138.558594 89.164062 138.824219 C 89.347656 138.570312 89.578125 138.308594 89.714844 138.070312 L 93.804688 130.949219 C 95.234375 128.617188 96.929688 126.457031 98.488281 124.207031 "/>
<path style=" stroke:none;fill-rule:nonzero;fill:rgb(100%,34.118652%,34.118652%);fill-opacity:1;" d="M 297.898438 166.132812 C 298.203125 166.640625 298.066406 165.457031 297.570312 163.375 C 297.164062 161.359375 296.339844 159.253906 295.972656 158.910156 C 295.617188 158.558594 295.976562 159.683594 296.449219 161.585938 C 296.898438 163.476562 297.574219 165.609375 297.898438 166.132812 "/>
<path style=" stroke:none;fill-rule:nonzero;fill:rgb(100%,34.118652%,34.118652%);fill-opacity:1;" d="M 286.960938 241.304688 C 286.878906 241.1875 286.648438 241.363281 286.328125 241.808594 C 286.171875 242.035156 285.652344 243.15625 285.175781 243.808594 C 284.386719 245.257812 283.9375 246.300781 283.992188 246.621094 C 284.03125 246.835938 284.441406 246.359375 285.246094 245.09375 C 286.328125 243.546875 287.089844 241.484375 286.960938 241.304688 "/>
<path style=" stroke:none;fill-rule:nonzero;fill:rgb(100%,34.118652%,34.118652%);fill-opacity:1;" d="M 181.664062 86.328125 C 181.492188 86.316406 180.652344 86.355469 180.296875 86.398438 C 177.515625 86.792969 176.175781 87.480469 177.578125 87.4375 C 177.859375 87.464844 179.402344 87.140625 180.066406 87.125 C 182.082031 86.902344 182.625 86.6875 182.761719 86.492188 C 182.414062 86.433594 182.15625 86.367188 181.664062 86.328125 "/>
<path style=" stroke:none;fill-rule:nonzero;fill:rgb(100%,34.118652%,34.118652%);fill-opacity:1;" d="M 145.382812 97.449219 C 146.332031 96.808594 146.433594 96.585938 145.503906 96.855469 C 145.308594 96.914062 144.855469 97.082031 144.589844 97.214844 C 143.847656 97.585938 142.835938 98.09375 142.488281 98.320312 C 141.792969 98.773438 141.476562 99.066406 141.0625 99.382812 C 141.445312 99.300781 141.613281 99.316406 142.089844 99.152344 C 142.742188 98.933594 144.691406 97.914062 145.382812 97.449219 "/>
<path style=" stroke:none;fill-rule:nonzero;fill:rgb(100%,34.118652%,34.118652%);fill-opacity:1;" d="M 273.363281 261.800781 C 273.53125 261.496094 273.460938 261.414062 273.203125 261.585938 C 272.972656 261.738281 272.292969 262.355469 271.886719 262.808594 C 271.441406 263.308594 271.082031 263.859375 270.683594 264.394531 C 270.734375 264.46875 270.625 264.738281 270.890625 264.5625 C 271.121094 264.40625 271.792969 263.792969 272.222656 263.3125 C 272.65625 262.832031 273.210938 262.074219 273.363281 261.800781 "/>
<path style=" stroke:none;fill-rule:nonzero;fill:rgb(100%,34.118652%,34.118652%);fill-opacity:1;" d="M 122.230469 100.207031 C 122.875 99.675781 122.824219 99.667969 121.84375 100.390625 C 118.921875 102.503906 116.128906 104.628906 113.917969 107.046875 C 113.132812 107.84375 113.175781 107.832031 114.132812 106.996094 C 116.855469 104.449219 119.578125 102.46875 122.230469 100.207031 "/>
<path style=" stroke:none;fill-rule:nonzero;fill:rgb(100%,34.118652%,34.118652%);fill-opacity:1;" d="M 247.941406 91.433594 C 249.328125 92.253906 250.839844 92.960938 250.367188 92.5625 C 250.082031 92.324219 249.074219 91.65625 248.476562 91.316406 C 247.285156 90.628906 246.152344 90.042969 244.917969 89.582031 C 245.210938 89.796875 245.246094 89.875 245.550781 90.03125 C 246.324219 90.390625 247.113281 90.960938 247.941406 91.433594 "/>
<path style=" stroke:none;fill-rule:nonzero;fill:rgb(100%,34.118652%,34.118652%);fill-opacity:1;" d="M 75.351562 195.535156 C 75.335938 194.554688 75.324219 193.558594 75.3125 192.753906 C 75.261719 191.453125 75.152344 192.902344 75.082031 196.070312 C 75.011719 197.144531 75.175781 198.222656 75.238281 199.28125 C 75.292969 199.746094 75.339844 200.160156 75.390625 200.597656 C 75.402344 199.96875 75.445312 199.457031 75.417969 198.683594 C 75.367188 197.75 75.304688 196.550781 75.351562 195.535156 "/>
<path style=" stroke:none;fill-rule:nonzero;fill:rgb(100%,34.118652%,34.118652%);fill-opacity:1;" d="M 168.175781 85.964844 C 167.507812 86.171875 166.820312 86.449219 166.75 86.535156 C 166.609375 86.753906 168.125 86.316406 169.496094 86.074219 C 170.179688 85.929688 170.539062 85.777344 171.042969 85.628906 C 170.964844 85.519531 169.515625 85.613281 168.175781 85.964844 "/>
<path style=" stroke:none;fill-rule:nonzero;fill:rgb(100%,34.118652%,34.118652%);fill-opacity:1;" d="M 291.644531 234.101562 C 291.90625 233.320312 291.660156 233.644531 291.148438 234.679688 C 290.964844 235.050781 290.644531 235.757812 290.578125 235.953125 C 290.398438 236.503906 290.292969 236.929688 290.230469 237.257812 C 290.21875 237.320312 290.554688 236.683594 290.730469 236.363281 C 291.042969 235.589844 291.441406 234.609375 291.644531 234.101562 "/>
<path style=" stroke:none;fill-rule:nonzero;fill:rgb(100%,34.118652%,34.118652%);fill-opacity:1;" d="M 289.261719 232 C 289.289062 231.917969 289.550781 231.144531 289.679688 230.777344 C 290.289062 228.734375 290.304688 228.113281 290.378906 227.351562 C 289.769531 229.238281 289.09375 231.253906 288.886719 232.441406 C 288.832031 232.746094 289.09375 232.285156 289.261719 232 "/>
<path style=" stroke:none;fill-rule:nonzero;fill:rgb(100%,34.118652%,34.118652%);fill-opacity:1;" d="M 290.378906 227.351562 C 290.460938 227.070312 290.519531 226.878906 290.601562 226.601562 C 290.621094 226.539062 290.648438 226.433594 290.667969 226.371094 L 290.484375 226.847656 C 290.460938 226.964844 290.402344 227.242188 290.378906 227.351562 "/>
<path style=" stroke:none;fill-rule:nonzero;fill:rgb(100%,34.118652%,34.118652%);fill-opacity:1;" d="M 167.460938 90.175781 C 167.246094 90.210938 166.605469 90.378906 166.320312 90.472656 C 165.371094 90.78125 165.246094 90.894531 165.984375 90.769531 C 166.191406 90.714844 166.742188 90.574219 167.109375 90.480469 C 168.058594 90.160156 168.21875 90.042969 167.460938 90.175781 "/>
<path style=" stroke:none;fill-rule:nonzero;fill:rgb(100%,34.118652%,34.118652%);fill-opacity:1;" d="M 151.707031 96.867188 C 152.152344 96.632812 152.519531 96.433594 152.90625 96.230469 L 151.867188 96.554688 L 150.707031 97.179688 C 151.058594 97.070312 151.671875 96.875 151.707031 96.867188 "/>
<path style=" stroke:none;fill-rule:nonzero;fill:rgb(100%,34.118652%,34.118652%);fill-opacity:1;" d="M 292.90625 158.226562 C 292.453125 157.230469 292.433594 157.386719 292.855469 158.617188 C 292.980469 158.917969 293.183594 159.398438 293.351562 159.792969 C 293.359375 159.703125 293.4375 159.75 293.359375 159.488281 C 293.277344 159.207031 293.019531 158.476562 292.90625 158.226562 "/>
<path style=" stroke:none;fill-rule:nonzero;fill:rgb(100%,34.118652%,34.118652%);fill-opacity:1;" d="M 178.148438 89.769531 L 178.246094 89.667969 L 177.417969 89.851562 Z M 178.148438 89.769531 "/>
<path style=" stroke:none;fill-rule:nonzero;fill:rgb(100%,34.118652%,34.118652%);fill-opacity:1;" d="M 112.878906 122.339844 L 112.410156 122.773438 L 112.292969 123.03125 Z M 112.878906 122.339844 "/>
<path style=" stroke:none;fill-rule:nonzero;fill:rgb(100%,34.118652%,34.118652%);fill-opacity:1;" d="M 232.027344 94.890625 L 231.914062 94.734375 C 231.695312 94.644531 231.457031 94.613281 231.226562 94.546875 C 231.5 94.648438 231.773438 94.75 232.027344 94.890625 "/>
<path style=" stroke:none;fill-rule:nonzero;fill:rgb(100%,34.118652%,34.118652%);fill-opacity:1;" d="M 265.113281 108.535156 L 264.339844 107.867188 L 264.894531 108.4375 Z M 265.113281 108.535156 "/>
<g clip-path="url(#clip5)" clip-rule="nonzero">
<path style=" stroke:none;fill-rule:nonzero;fill:rgb(100%,34.118652%,34.118652%);fill-opacity:1;" d="M 256.152344 112.5 L 256.152344 244.855469 L 251.738281 244.855469 C 238.363281 244.855469 227.480469 233.976562 227.480469 220.605469 L 227.480469 209.640625 L 209.84375 209.640625 L 209.84375 220.605469 C 209.84375 233.976562 198.964844 244.855469 185.585938 244.855469 L 181.175781 244.855469 L 181.175781 112.5 L 163.539062 112.5 L 163.539062 262.5 L 185.585938 262.5 C 199.035156 262.5 210.992188 256.105469 218.664062 246.222656 C 226.332031 256.105469 238.292969 262.5 251.738281 262.5 L 273.789062 262.5 L 273.789062 112.5 L 256.152344 112.5 "/>
</g>
<g clip-path="url(#clip6)" clip-rule="nonzero">
<path style=" stroke:none;fill-rule:nonzero;fill:rgb(100%,100%,100%);fill-opacity:1;" d="M 156.460938 259.332031 L 118.960938 259.332031 L 118.960938 144.628906 L 156.460938 144.628906 C 169.84375 144.628906 180.730469 155.515625 180.730469 168.894531 C 180.730469 182.269531 169.84375 193.15625 156.460938 193.15625 L 141.023438 193.15625 L 141.023438 210.804688 L 156.460938 210.804688 C 169.84375 210.804688 180.730469 221.691406 180.730469 235.070312 C 180.730469 248.445312 169.84375 259.332031 156.460938 259.332031 Z M 182.097656 201.980469 C 191.980469 194.304688 198.375 182.347656 198.375 168.894531 C 198.375 145.785156 179.578125 126.980469 156.460938 126.980469 L 101.320312 126.980469 L 101.320312 276.980469 L 156.460938 276.980469 C 179.578125 276.980469 198.375 258.179688 198.375 235.070312 C 198.375 221.617188 191.980469 209.65625 182.097656 201.980469 "/>
</g>
</g>
</svg>
