<?xml version="1.0" encoding="UTF-8"?>
<svg xmlns="http://www.w3.org/2000/svg" xmlns:xlink="http://www.w3.org/1999/xlink" width="252pt" height="143.999998pt" viewBox="0 0 252 143.999998" version="1.2">
<g id="surface1">
<path style=" stroke:none;fill-rule:nonzero;fill:rgb(0%,0%,0%);fill-opacity:1;" d="M 219.050781 67.804688 C 217.449219 67.933594 215.375 68.238281 213.90625 67.933594 C 207.722656 68.109375 201.539062 66.679688 195.226562 67.285156 C 195.570312 67.503906 195.226562 67.847656 194.878906 67.980469 L 194.792969 67.761719 L 194.316406 68.195312 C 193.84375 68.238281 194.058594 67.675781 194.449219 67.589844 C 191.941406 67.589844 189.691406 67.804688 187.226562 67.675781 C 187.054688 68.367188 185.972656 67.71875 185.886719 68.410156 C 185.757812 68.28125 185.886719 68.238281 185.929688 68.109375 C 185.453125 68.195312 185.109375 68.28125 184.804688 68.324219 C 184.070312 68.410156 183.679688 68.238281 182.558594 67.632812 C 175.941406 67.070312 169.585938 67.546875 163.097656 67.332031 C 156.527344 67.460938 150.039062 68.066406 143.296875 68.238281 C 142.257812 69.320312 140.832031 68.800781 139.621094 69.75 L 139.707031 69.40625 C 138.667969 69.882812 138.410156 69.320312 137.070312 68.929688 C 137.070312 69.320312 136.550781 69.015625 136.765625 69.664062 C 136.289062 70.183594 135.945312 68.757812 135.296875 69.058594 C 135.253906 68.84375 135.296875 69.449219 135.167969 69.234375 C 133.480469 70.011719 135.511719 68.886719 133.308594 68.28125 C 130.28125 68.496094 127.210938 69.144531 124.3125 68.757812 C 124.488281 68.714844 124.574219 69.234375 124.269531 69.234375 C 123.96875 68.195312 123.277344 69.492188 122.757812 69.101562 C 122.800781 68.886719 123.058594 68.84375 123.191406 68.714844 C 121.890625 68.28125 120.769531 68.929688 119.558594 68.496094 C 118.390625 68.929688 116.964844 68.023438 116.183594 68.539062 C 116.359375 68.152344 115.664062 68.238281 115.40625 68.023438 C 114.542969 69.234375 113.070312 67.589844 112.035156 68.410156 L 112.078125 68.195312 C 108.835938 68.28125 105.332031 68.023438 102.003906 68.585938 C 100.101562 68.714844 97.980469 67.632812 95.90625 68.152344 C 95.515625 68.324219 95.820312 68.585938 95.515625 68.671875 C 94.996094 68.628906 95.515625 68.28125 95.300781 68.152344 C 94.261719 68.628906 92.921875 68.066406 91.625 68.066406 C 91.453125 68.238281 91.105469 68.324219 91.234375 68.585938 C 89.808594 67.761719 87.863281 68.886719 86.394531 68.238281 C 86.910156 69.277344 85.527344 68.800781 85.007812 69.058594 C 84.707031 69.015625 84.707031 68.757812 84.792969 68.539062 C 83.710938 68.671875 83.148438 68.714844 81.808594 68.410156 C 81.203125 68.539062 81.03125 69.101562 80.296875 68.929688 C 79.863281 68.195312 78.78125 68.886719 78.089844 68.628906 C 78.265625 69.234375 77.355469 69.75 76.664062 69.492188 L 76.878906 68.628906 C 76.621094 68.671875 76.363281 68.714844 76.058594 68.757812 C 73.855469 68.972656 71.042969 68.324219 68.707031 69.277344 L 68.492188 68.886719 C 65.769531 69.492188 63.085938 68.84375 60.449219 69.839844 C 59.757812 69.578125 58.589844 69.40625 57.898438 69.40625 C 56.945312 69.839844 56.601562 69.792969 55.953125 70.488281 C 55.605469 70.53125 55.390625 70.140625 55.21875 69.925781 C 54.007812 69.792969 52.882812 69.058594 51.886719 69.882812 L 51.84375 69.449219 C 50.894531 69.882812 49.511719 70.445312 48.429688 69.925781 C 48.125 70.3125 47.046875 70.488281 47.519531 70.960938 C 47.089844 71.046875 47.261719 70.226562 46.828125 70.703125 L 47.21875 70.054688 C 44.796875 69.882812 42.765625 70.226562 40.429688 70.574219 C 39.824219 69.839844 38.269531 70.703125 36.925781 70.269531 C 36.148438 70.703125 34.808594 70.097656 34.203125 71.046875 L 34.160156 70.617188 C 33.121094 70.574219 31.738281 70.574219 30.355469 70.355469 C 29.578125 70.226562 29.578125 70.875 28.929688 71.09375 L 28.886719 70.660156 C 28.191406 70.917969 28.019531 71.609375 27.761719 72.042969 C 27.242188 71.742188 27.15625 72.042969 26.636719 71.742188 C 27.15625 71.480469 27.585938 71.003906 27.933594 70.445312 C 27.113281 70.269531 26.246094 71.351562 25.726562 70.703125 C 25.035156 70.53125 24.519531 70.703125 24.429688 71.222656 L 24.429688 71.308594 L 24.429688 71.222656 C 24.386719 71.046875 24 70.917969 24.34375 70.703125 C 23.824219 70.703125 23.480469 70.746094 23.175781 71.003906 C 23.265625 71.003906 23.4375 71.09375 23.523438 71.046875 C 23.265625 71.480469 22.746094 71.480469 22.875 72.128906 C 23.132812 71.957031 23.175781 71.871094 23.480469 71.914062 C 23.351562 72.390625 22.441406 72.519531 22.226562 72.085938 C 21.964844 71.609375 22.832031 71.308594 22.398438 71.046875 L 21.058594 72.085938 C 21.359375 71.957031 21.707031 72.214844 21.578125 72.605469 L 22.140625 72.300781 L 22.097656 72.777344 C 23.046875 72.605469 23.738281 73.082031 24.734375 72.691406 L 24.34375 72.214844 C 24.90625 72.171875 25.511719 71.523438 26.074219 72.085938 C 25.816406 72.257812 25.988281 72.519531 25.988281 72.777344 C 26.117188 72.691406 26.289062 72.519531 26.421875 72.5625 L 26.160156 73.382812 C 26.421875 72.300781 27.761719 72.996094 28.019531 72.820312 L 27.933594 72.996094 C 28.796875 73.339844 27.761719 72.519531 28.367188 72.519531 C 28.886719 72.648438 28.539062 73.425781 29.015625 73.773438 C 29.878906 73.730469 31.394531 73.125 32.386719 73.773438 C 33.164062 73.644531 34.03125 73.339844 34.765625 72.953125 C 35.457031 72.953125 34.722656 73.816406 35.457031 73.425781 C 35.371094 73.730469 35.5 74.03125 35.542969 74.292969 C 35.628906 73.988281 36.839844 74.335938 36.277344 73.601562 C 37.316406 73.773438 38.441406 73.816406 39.523438 73.6875 C 39.175781 73.730469 39.089844 74.25 39.390625 74.507812 C 39.910156 73.988281 40.777344 73.6875 41.683594 73.859375 C 41.683594 73.296875 41.382812 73.339844 41.46875 72.777344 C 41.597656 72.691406 41.8125 72.433594 42.03125 72.476562 C 42.160156 73.039062 42.117188 73.902344 42.9375 73.902344 C 42.722656 74.765625 41.554688 73.773438 41.941406 74.679688 C 41.597656 75.371094 40.128906 75.414062 39.78125 74.984375 C 39.046875 75.71875 40.34375 75.070312 40.214844 75.804688 C 40.863281 75.761719 41.164062 75.371094 42.160156 75.242188 C 42.160156 74.855469 41.8125 74.808594 42.289062 74.507812 C 43.195312 73.730469 43.414062 75.070312 43.628906 75.113281 C 43.5 75.199219 43.328125 75.242188 43.195312 75.328125 C 43.800781 75.589844 44.019531 75.070312 44.625 75.113281 C 44.796875 76.109375 43.628906 75.242188 43.371094 75.847656 L 43.84375 76.582031 C 44.796875 76.667969 44.105469 75.761719 45.097656 76.019531 L 44.96875 76.367188 L 45.574219 76.152344 C 45.574219 75.761719 45.445312 75.199219 44.925781 75.285156 C 45.273438 74.335938 45.402344 75.15625 46.265625 74.941406 C 46.527344 74.378906 45.921875 74.984375 45.878906 74.464844 C 45.792969 73.945312 46.398438 73.945312 46.785156 73.859375 C 47.476562 73.859375 47.132812 74.464844 47.433594 74.808594 C 47.304688 74.898438 46.742188 74.984375 46.828125 74.679688 C 45.964844 75.242188 47.21875 75.804688 46.613281 76.238281 C 47.261719 76.539062 47.261719 75.933594 47.5625 75.71875 C 47.390625 75.632812 47.695312 75.15625 47.519531 74.984375 C 48.644531 73.46875 48.257812 76.066406 49.335938 75.804688 C 49.121094 74.855469 50.808594 74.464844 49.984375 73.425781 C 50.246094 73.253906 50.589844 73.039062 50.851562 73.125 C 50.546875 73.773438 51.324219 73.644531 50.808594 74.25 L 51.195312 74.25 L 50.589844 75.027344 C 51.023438 75.460938 51.757812 75.933594 52.019531 76.238281 C 52.578125 75.933594 51.84375 75.632812 52.492188 75.460938 C 52.277344 75.804688 52.667969 76.066406 52.96875 76.066406 C 52.363281 75.804688 52.96875 75.15625 53.316406 74.984375 C 53.921875 74.984375 54.394531 75.589844 54.308594 75.71875 L 53.832031 76.195312 C 54.136719 75.933594 53.964844 76.539062 54.351562 76.324219 C 54.484375 75.976562 54.742188 75.414062 54.914062 74.941406 C 55.304688 74.765625 55.5625 75.242188 55.691406 75.15625 L 55.085938 75.546875 C 55.867188 75.414062 55.261719 76.539062 56.039062 76.28125 L 56.253906 75.761719 C 56.429688 75.847656 56.472656 76.066406 56.339844 76.28125 C 56.472656 75.933594 56.902344 75.976562 57.121094 75.847656 L 57.164062 76.195312 C 57.507812 75.976562 57.941406 75.242188 58.332031 75.890625 C 58.027344 75.070312 57.941406 75.890625 57.335938 75.503906 C 56.992188 74.898438 57.898438 74.941406 58.027344 74.855469 C 57.984375 75.71875 58.894531 74.941406 59.28125 74.941406 C 59.5 75.242188 59.714844 75.371094 59.886719 75.589844 L 60.058594 75.027344 C 60.234375 76.152344 60.882812 74.765625 61.3125 75.113281 C 61.097656 75.460938 61.097656 75.890625 61.445312 76.066406 C 61.011719 75.242188 62.136719 75.027344 62.007812 74.464844 C 62.828125 74.765625 61.832031 75.503906 62.050781 76.109375 C 62.4375 75.460938 62.957031 76.539062 63.214844 75.71875 C 62.613281 75.460938 63.304688 75.199219 63.433594 74.808594 C 64.167969 74.855469 63.304688 75.15625 63.820312 75.460938 C 64.125 75.328125 64.558594 74.722656 64.039062 74.464844 C 64.46875 74.636719 64.945312 73.859375 65.464844 74.378906 C 65.679688 74.898438 64.558594 74.59375 64.816406 74.984375 C 65.855469 75.027344 65.335938 73.730469 66.285156 73.554688 C 65.855469 73.296875 66.285156 72.347656 66.71875 72.042969 C 67.800781 72.257812 66.242188 72.347656 66.675781 72.996094 L 67.109375 72.90625 C 67.714844 73.816406 65.855469 74.378906 66.417969 75.113281 L 66.890625 74.808594 C 66.804688 75.070312 66.632812 75.546875 66.847656 75.761719 C 66.980469 75.113281 67.929688 75.589844 68.015625 75.460938 C 68.101562 74.941406 67.628906 75.632812 67.714844 75.199219 C 68.1875 75.070312 68.40625 74.160156 69.183594 74.507812 C 68.75 74.898438 69.355469 75.242188 69.183594 75.546875 C 69.574219 75.761719 69.3125 74.898438 69.832031 75.199219 L 69.789062 75.503906 C 71.691406 75.589844 74.070312 75.546875 75.757812 74.335938 C 75.800781 74.292969 75.84375 74.25 75.886719 74.25 C 76.1875 74.765625 76.835938 74.808594 77.832031 75.199219 C 77.398438 75.027344 77.832031 74.636719 78.046875 74.59375 L 78.523438 75.199219 C 79.085938 75.546875 79.863281 74.984375 80.382812 74.636719 C 80.46875 74.765625 80.511719 74.941406 80.511719 75.070312 C 81.03125 75.460938 81.03125 74.722656 81.246094 74.59375 L 81.59375 75.027344 L 81.679688 74.59375 C 82.199219 74.335938 82.890625 74.464844 82.804688 75.15625 C 83.019531 75.027344 83.191406 74.898438 82.933594 74.679688 C 83.453125 75.070312 84.835938 75.070312 85.746094 74.855469 C 85.3125 74.679688 85.355469 74.464844 85.3125 74.03125 C 85.789062 73.296875 85.832031 74.160156 86.21875 73.730469 C 86.21875 73.988281 86.652344 74.292969 86.21875 74.464844 C 87.429688 75.414062 89.160156 74.636719 90.71875 74.855469 C 91.019531 74.722656 90.933594 74.636719 91.0625 74.421875 C 92.058594 75.15625 93.226562 74.378906 94.261719 74.722656 C 94.046875 74.421875 94.347656 73.554688 94.953125 73.511719 C 95.601562 72.90625 95.214844 74.378906 95.777344 74.722656 C 96.078125 74.421875 96.597656 74.378906 96.8125 74.421875 L 96.8125 74.507812 C 97.160156 74.160156 97.722656 73.988281 98.152344 74.292969 L 98.066406 74.335938 C 98.414062 74.378906 98.800781 74.765625 99.148438 74.722656 C 99.320312 74.160156 100.1875 74.507812 100.402344 73.988281 C 100.445312 74.03125 100.402344 74.074219 100.488281 74.207031 L 100.53125 73.730469 L 101.222656 73.988281 C 101.050781 74.160156 101.050781 74.378906 100.835938 74.507812 C 101.613281 74.855469 101.09375 74.074219 101.484375 73.816406 C 102.003906 73.46875 102.003906 73.945312 102.21875 74.160156 C 102.003906 74.421875 101.828125 74.03125 101.699219 74.117188 C 101.398438 74.507812 102.003906 74.292969 102.046875 74.550781 C 102.175781 74.550781 102.21875 73.988281 102.609375 74.074219 C 102.953125 74.117188 103.730469 73.988281 103.644531 74.507812 C 103.949219 74.25 104.25 74.292969 104.46875 74.03125 C 104.207031 73.945312 103.6875 73.816406 103.644531 73.46875 C 103.90625 73.382812 104.378906 73.253906 104.46875 73.46875 L 104.25 73.601562 C 104.46875 73.46875 105.160156 73.644531 104.8125 73.125 L 105.332031 73.816406 C 105.503906 73.425781 106.023438 73.425781 106.457031 73.339844 C 106.457031 73.859375 106.152344 74.464844 106.929688 74.59375 L 107.625 74.03125 C 107.96875 73.988281 108.054688 74.117188 108.011719 74.421875 C 109.222656 74.722656 109.265625 72.953125 110.21875 73.425781 C 109.828125 74.074219 110.132812 74.117188 110.5625 74.292969 C 110.5625 74.207031 110.605469 73.988281 110.78125 73.945312 C 110.648438 73.644531 110.519531 74.378906 110.175781 73.945312 C 110.089844 73.554688 110.5625 73.6875 110.78125 73.554688 C 111.644531 74.941406 113.632812 73.902344 115.015625 74.550781 C 114.929688 73.773438 115.621094 74.335938 115.925781 74.03125 C 115.839844 74.855469 116.703125 73.902344 117.09375 74.378906 L 116.917969 73.730469 C 117.785156 74.207031 118.304688 72.519531 118.824219 73.46875 C 119.296875 73.730469 118.648438 74.03125 118.476562 74.160156 C 119.125 75.027344 120.25 73.46875 120.769531 74.421875 C 120.8125 74.117188 120.636719 73.601562 121.199219 73.296875 C 121.675781 73.644531 122.585938 74.074219 122.496094 74.207031 C 122.886719 74.03125 122.972656 73.816406 123.40625 74.074219 C 123.363281 74.292969 123.191406 74.292969 123.058594 74.421875 C 123.707031 74.636719 124.269531 74.292969 124.832031 73.988281 C 125.179688 74.59375 126.347656 74.292969 127.125 74.636719 C 127.554688 73.902344 128.335938 74.941406 128.421875 73.988281 C 128.421875 74.074219 128.507812 74.207031 128.550781 74.292969 C 128.855469 74.03125 129.070312 73.382812 129.414062 73.339844 L 129.285156 73.988281 C 129.199219 74.722656 130.152344 74.25 130.367188 74.464844 C 130.152344 74.03125 130.800781 74.507812 130.84375 74.074219 L 131.273438 73.859375 C 131.96875 73.6875 131.363281 73.554688 132.183594 73.46875 C 132.660156 73.425781 132.355469 74.207031 132.183594 74.117188 C 132.574219 74.464844 133.003906 74.25 133.394531 74.117188 C 133.222656 74.117188 133.175781 74.074219 133.351562 73.945312 C 133.351562 74.03125 133.394531 74.074219 133.4375 74.117188 C 133.609375 74.074219 133.738281 74.03125 133.914062 74.03125 L 133.914062 74.074219 C 134.128906 74.03125 134.34375 73.988281 134.519531 73.945312 C 134.648438 73.902344 134.734375 73.859375 134.820312 73.859375 C 135.082031 73.816406 135.167969 73.816406 134.90625 73.945312 C 134.863281 73.902344 134.863281 73.859375 134.820312 73.859375 C 134.734375 73.859375 134.648438 73.902344 134.519531 73.945312 C 134.34375 74.03125 134.171875 74.207031 134.042969 74.25 C 134.171875 74.25 134.300781 74.292969 134.386719 74.378906 L 134.257812 74.855469 C 134.5625 74.898438 135.339844 74.335938 135.339844 74.117188 C 136.464844 74.550781 138.367188 74.207031 139.144531 73.902344 C 139.1875 73.859375 139.273438 73.816406 139.359375 73.816406 C 139.316406 73.859375 139.230469 73.859375 139.144531 73.902344 C 139.015625 74.03125 138.972656 74.160156 139.144531 73.988281 C 139.535156 73.902344 139.964844 73.46875 140.007812 73.773438 C 140.398438 73.554688 140.355469 74.117188 140.960938 74.160156 C 140.960938 74.25 141.003906 73.902344 140.960938 73.773438 C 140.917969 73.773438 140.917969 73.730469 140.875 73.730469 C 140.917969 73.730469 140.960938 73.730469 140.960938 73.773438 C 141.957031 74.421875 143.164062 73.296875 144.332031 73.730469 L 144.375 73.730469 L 144.332031 73.730469 C 144.246094 73.773438 144.117188 74.03125 143.988281 74.207031 C 144.894531 73.945312 145.761719 73.773438 146.582031 73.167969 C 146.496094 73.382812 146.539062 73.601562 146.324219 73.730469 C 146.972656 73.730469 147.707031 73.601562 148.007812 73.125 C 147.578125 72.90625 147.964844 73.382812 147.707031 73.382812 C 147.230469 72.953125 148.050781 72.476562 148.484375 72.605469 L 148.484375 72.691406 C 149.132812 72.691406 149.132812 72.390625 149.78125 72.390625 C 150.171875 72.648438 149.4375 72.519531 149.609375 72.820312 C 149.738281 73.601562 151.035156 73.339844 151.164062 73.425781 C 151.339844 73.253906 151.554688 73.125 151.511719 72.90625 C 151.988281 72.691406 151.726562 73.382812 152.074219 73.339844 L 153.414062 71.871094 C 153.414062 71.828125 153.457031 71.785156 153.5 71.785156 L 153.414062 71.871094 C 153.371094 72.085938 153.847656 72.519531 153.457031 72.820312 C 154.496094 72.734375 155.058594 71.785156 155.707031 71.308594 C 156.007812 71.4375 157.003906 71.136719 157.347656 71.09375 C 157.519531 71.523438 157.046875 71.046875 156.960938 71.394531 L 157.476562 71.871094 C 156.785156 71.957031 157.566406 72.605469 157.175781 72.90625 C 157.738281 72.648438 159.035156 72.953125 159.855469 73.082031 C 159.292969 72.171875 160.980469 72.648438 160.9375 71.828125 C 161.886719 71.699219 161.414062 72.476562 161.800781 72.648438 C 162.796875 72.347656 163.746094 72.5625 164.65625 72.476562 C 164.65625 72.476562 164.65625 72.5625 164.613281 72.648438 C 165.433594 72.390625 166.816406 72.648438 167.640625 71.914062 C 167.597656 72.085938 167.683594 72.214844 167.464844 72.347656 C 168.375 72.648438 167.640625 71.308594 168.675781 71.785156 L 168.417969 72.171875 C 169.066406 71.785156 169.671875 72.519531 170.40625 71.914062 C 170.449219 72.128906 170.277344 72.214844 170.148438 72.300781 C 170.839844 72.128906 171.574219 72.214844 172.136719 71.652344 C 172.222656 71.914062 172.136719 72.128906 171.875 72.300781 C 172.523438 72.605469 172.613281 71.566406 173.21875 71.871094 C 173.390625 71.914062 173.734375 72.257812 173.605469 72.257812 C 173.910156 71.914062 174.816406 71.914062 175.164062 71.785156 C 175.25 72.042969 175.507812 72.128906 175.855469 72.390625 C 178.796875 72.390625 181.820312 72.476562 184.761719 72.042969 C 185.152344 72 185.582031 71.914062 185.972656 71.828125 C 186.535156 72.648438 185.195312 72.347656 185.539062 72.863281 C 185.496094 72.171875 186.101562 72.648438 187.097656 72.433594 L 187.140625 72.519531 C 187.574219 72.390625 187.832031 72.820312 188.265625 72.605469 L 188.265625 72.433594 C 188.738281 72 189.34375 73.339844 189.605469 72.433594 L 189.992188 72.90625 C 190.46875 72.128906 190.773438 73.167969 191.378906 72.476562 L 191.292969 72.605469 C 192.113281 72.953125 192.976562 71.742188 193.28125 72.390625 C 193.972656 72.257812 194.75 72.128906 194.878906 71.480469 C 195.054688 71.699219 194.921875 72.085938 194.835938 72.300781 C 197.429688 72 200.285156 72.128906 202.578125 71.308594 C 202.707031 71.4375 202.535156 71.523438 202.488281 71.699219 C 203.917969 70.960938 205.429688 72.476562 206.46875 71.09375 L 206.855469 70.53125 C 207.203125 70.746094 207.160156 71.179688 207.417969 71.351562 C 207.679688 70.960938 208.714844 71.265625 208.890625 70.746094 C 209.0625 70.960938 208.847656 71.046875 208.847656 71.222656 C 209.496094 71.351562 210.273438 70.488281 210.878906 70.660156 L 210.664062 70.917969 C 213.949219 71.914062 218.144531 72.691406 220.867188 71.394531 C 221.601562 71.179688 221.210938 72.128906 221.515625 72.085938 C 224.28125 71.046875 227.613281 72.691406 230.164062 71.046875 C 232.152344 70.617188 232.757812 68.800781 232.757812 68.800781 C 228.042969 69.535156 223.808594 68.757812 219.050781 67.804688 Z M 219.050781 67.804688 "/>
</g>
</svg>
