<?xml version="1.0" encoding="UTF-8"?>
<svg xmlns="http://www.w3.org/2000/svg" xmlns:xlink="http://www.w3.org/1999/xlink" width="900pt" height="899.99999pt" viewBox="0 0 900 899.99999" version="1.2">
<defs>
<clipPath id="clip1">
  <path d="M 372 5 L 899.632812 5 L 899.632812 534 L 372 534 Z M 372 5 "/>
</clipPath>
</defs>
<g id="surface1">
<path style=" stroke:none;fill-rule:nonzero;fill:rgb(100%,34.118652%,34.118652%);fill-opacity:1;" d="M 438.011719 664.515625 C 431.542969 664.515625 425.464844 666.078125 419.929688 668.882812 L 419.929688 668.84375 L 419.8125 668.960938 C 415.839844 670.953125 412.214844 673.605469 409.019531 676.761719 C 377.6875 696.148438 362.253906 674.5 358.082031 666.894531 L 358.082031 537.328125 L 230.996094 537.328125 C 230.996094 537.328125 195.609375 522.585938 218.757812 485.144531 C 221.917969 481.90625 224.527344 478.28125 226.554688 474.339844 L 226.632812 474.222656 C 229.398438 468.683594 230.996094 462.5625 230.996094 456.125 C 230.996094 431.828125 209.015625 412.132812 181.894531 412.132812 C 154.730469 412.132812 132.75 431.828125 132.75 456.125 C 132.75 462.5625 134.347656 468.683594 137.152344 474.222656 L 137.113281 474.222656 L 137.191406 474.339844 C 139.21875 478.28125 141.867188 481.90625 145.027344 485.144531 C 168.136719 522.585938 132.75 537.328125 132.75 537.328125 L 5.683594 537.328125 L 5.683594 889.988281 L 358.082031 889.988281 L 358.082031 760.421875 C 362.253906 752.855469 377.6875 731.171875 409.019531 750.554688 C 412.214844 753.714844 415.839844 756.367188 419.8125 758.355469 L 419.929688 758.472656 L 419.929688 758.433594 C 425.464844 761.242188 431.542969 762.839844 438.011719 762.839844 C 462.292969 762.839844 481.972656 740.804688 481.972656 713.660156 C 481.972656 686.515625 462.292969 664.515625 438.011719 664.515625 "/>
<path style=" stroke:none;fill-rule:nonzero;fill:rgb(100%,100%,100%);fill-opacity:1;" d="M 438.011719 664.515625 L 438.011719 654.765625 C 429.945312 654.726562 422.308594 656.753906 415.527344 660.1875 L 419.929688 668.886719 L 428.386719 664.046875 L 428.386719 664.007812 C 426.945312 661.511719 424.492188 659.796875 421.683594 659.25 C 418.917969 658.746094 415.996094 659.484375 413.773438 661.277344 L 413.65625 661.394531 L 419.8125 668.960938 L 415.371094 660.265625 C 410.5 662.761719 406.058594 666 402.160156 669.820312 L 409.019531 676.761719 L 403.875 668.496094 C 395.808594 673.449219 389.804688 674.851562 385.363281 674.890625 C 382.714844 674.851562 380.492188 674.382812 378.503906 673.566406 C 375.542969 672.394531 373.007812 670.367188 370.984375 668.183594 C 368.917969 666 367.4375 663.660156 366.578125 662.175781 L 358.082031 666.894531 L 367.824219 666.894531 L 367.824219 537.328125 C 367.824219 534.753906 366.773438 532.257812 364.980469 530.425781 C 363.148438 528.632812 360.65625 527.578125 358.082031 527.578125 L 230.996094 527.578125 L 230.996094 537.328125 L 234.738281 528.320312 L 232.75 533.117188 L 234.816406 528.359375 L 234.738281 528.320312 L 232.75 533.117188 L 234.816406 528.359375 C 234.816406 528.359375 234.582031 528.242188 234.152344 528.007812 C 232.632812 527.265625 228.851562 525.042969 225.851562 521.765625 C 224.371094 520.128906 223.085938 518.257812 222.148438 516.152344 C 221.214844 514.003906 220.667969 511.703125 220.667969 508.78125 C 220.667969 504.332031 222.035156 498.367188 227.023438 490.253906 L 218.761719 485.144531 L 225.695312 491.96875 C 229.515625 488.070312 232.75 483.660156 235.246094 478.785156 L 226.554688 474.339844 L 233.996094 480.621094 L 234.113281 480.503906 C 236.023438 478.203125 236.804688 475.160156 236.179688 472.234375 C 235.59375 469.308594 233.6875 466.851562 231.035156 465.488281 L 230.996094 465.488281 L 226.632812 474.222656 L 235.324219 478.628906 C 238.753906 471.84375 240.777344 464.199219 240.738281 456.125 C 240.777344 440.953125 233.84375 427.304688 223.125 417.746094 C 212.40625 408.152344 197.832031 402.378906 181.894531 402.378906 C 165.953125 402.378906 151.378906 408.152344 140.660156 417.746094 C 129.945312 427.304688 123.007812 440.953125 123.007812 456.125 C 123.007812 464.199219 125.035156 471.84375 128.421875 478.589844 L 137.152344 474.222656 L 131.738281 466.109375 L 131.699219 466.109375 C 129.4375 467.632812 127.957031 469.972656 127.488281 472.664062 C 127.058594 475.316406 127.761719 478.046875 129.398438 480.191406 L 129.476562 480.308594 L 137.191406 474.339844 L 128.5 478.785156 C 131.035156 483.660156 134.269531 488.070312 138.050781 491.96875 L 145.027344 485.144531 L 136.726562 490.253906 C 141.714844 498.367188 143.117188 504.332031 143.117188 508.78125 C 143.117188 512.210938 142.296875 514.863281 141.089844 517.242188 C 139.21875 520.832031 136.179688 523.757812 133.449219 525.707031 C 132.085938 526.644531 130.878906 527.382812 130.023438 527.8125 C 129.632812 528.007812 129.28125 528.203125 129.125 528.28125 L 128.929688 528.359375 L 131.425781 534.132812 L 129.007812 528.320312 L 128.929688 528.359375 L 131.425781 534.132812 L 129.007812 528.320312 L 132.75 537.328125 L 132.75 527.578125 L 5.683594 527.578125 C 3.109375 527.578125 0.613281 528.632812 -1.214844 530.425781 C -3.027344 532.257812 -4.058594 534.753906 -4.058594 537.328125 L -4.058594 889.988281 C -4.058594 892.5625 -3.027344 895.097656 -1.214844 896.894531 C 0.613281 898.726562 3.109375 899.742188 5.683594 899.742188 L 358.082031 899.742188 C 360.65625 899.742188 363.148438 898.726562 364.980469 896.894531 C 366.773438 895.097656 367.824219 892.5625 367.824219 889.988281 L 367.824219 760.421875 L 358.082031 760.421875 L 366.578125 765.144531 C 367.710938 763.152344 370.007812 759.683594 373.164062 757.03125 C 374.761719 755.703125 376.554688 754.574219 378.503906 753.753906 C 380.492188 752.972656 382.714844 752.46875 385.363281 752.46875 C 389.804688 752.46875 395.808594 753.871094 403.875 758.863281 L 409.019531 750.554688 L 402.160156 757.5 C 406.058594 761.320312 410.5 764.597656 415.371094 767.054688 L 419.8125 758.355469 L 413.382812 765.726562 L 413.5 765.804688 C 415.722656 767.757812 418.644531 768.574219 421.527344 768.105469 C 424.414062 767.601562 426.90625 765.84375 428.386719 763.308594 L 428.386719 763.269531 L 419.929688 758.433594 L 415.527344 767.171875 C 422.269531 770.5625 429.945312 772.59375 438.015625 772.59375 C 453.171875 772.59375 466.8125 765.648438 476.363281 754.925781 C 485.949219 744.199219 491.714844 729.613281 491.714844 713.660156 C 491.714844 697.707031 485.949219 683.121094 476.363281 672.394531 C 466.8125 661.667969 453.132812 654.726562 438.015625 654.765625 L 438.015625 674.265625 C 447.132812 674.265625 455.472656 678.324219 461.824219 685.382812 C 468.140625 692.441406 472.230469 702.425781 472.230469 713.660156 C 472.230469 724.851562 468.140625 734.878906 461.824219 741.9375 C 455.472656 748.996094 447.132812 753.089844 438.015625 753.089844 C 433.179688 753.089844 428.582031 751.921875 424.335938 749.738281 C 419.695312 747.398438 414.046875 749.113281 411.472656 753.597656 L 411.472656 753.636719 L 419.929688 758.472656 L 426.324219 751.140625 L 426.207031 751.023438 C 425.582031 750.476562 424.957031 750.050781 424.21875 749.699219 C 421.179688 748.136719 418.371094 746.109375 415.839844 743.613281 C 415.332031 743.105469 414.746094 742.636719 414.125 742.25 C 403.757812 735.851562 394.132812 732.925781 385.363281 732.964844 C 380.140625 732.925781 375.347656 733.980469 371.214844 735.695312 C 364.980469 738.230469 360.226562 742.09375 356.757812 745.796875 C 353.25 749.542969 350.953125 753.167969 349.546875 755.703125 C 348.769531 757.148438 348.339844 758.746094 348.339844 760.421875 L 348.339844 880.238281 L 15.40625 880.238281 L 15.40625 547.078125 L 132.75 547.078125 C 134.035156 547.078125 135.28125 546.808594 136.492188 546.339844 C 137.113281 546.066406 143.039062 543.609375 149.390625 537.796875 C 152.546875 534.910156 155.820312 531.128906 158.355469 526.253906 C 160.886719 521.417969 162.601562 515.449219 162.601562 508.78125 C 162.601562 500.042969 159.71875 490.371094 153.289062 479.996094 C 152.9375 479.410156 152.46875 478.824219 151.960938 478.28125 C 149.46875 475.746094 147.441406 472.9375 145.882812 469.894531 C 145.609375 469.386719 145.257812 468.839844 144.910156 468.371094 L 144.792969 468.257812 L 137.113281 474.222656 L 142.492188 482.335938 L 142.53125 482.335938 C 146.664062 479.566406 148.066406 474.222656 145.84375 469.816406 C 143.660156 465.527344 142.492188 460.960938 142.492188 456.125 C 142.492188 446.960938 146.585938 438.652344 153.636719 432.257812 C 160.691406 425.9375 170.667969 421.882812 181.894531 421.882812 C 193.078125 421.882812 203.054688 425.9375 210.109375 432.257812 C 217.160156 438.652344 221.253906 446.960938 221.253906 456.125 C 221.253906 460.960938 220.085938 465.527344 217.941406 469.816406 C 216.773438 472.117188 216.539062 474.808594 217.394531 477.265625 C 218.175781 479.761719 219.929688 481.75 222.265625 482.921875 L 222.304688 482.960938 L 226.632812 474.222656 L 219.1875 467.984375 L 219.109375 468.0625 C 218.644531 468.605469 218.214844 469.269531 217.863281 469.894531 C 216.34375 472.9375 214.277344 475.785156 211.824219 478.28125 C 211.316406 478.785156 210.847656 479.410156 210.457031 479.996094 C 204.027344 490.371094 201.144531 500.042969 201.144531 508.78125 C 201.144531 515.449219 202.859375 521.417969 205.390625 526.253906 C 209.210938 533.546875 214.628906 538.382812 218.992188 541.542969 C 223.359375 544.660156 226.789062 546.105469 227.253906 546.339844 C 228.464844 546.808594 229.710938 547.078125 230.996094 547.078125 L 348.339844 547.078125 L 348.339844 666.894531 C 348.339844 668.574219 348.769531 670.171875 349.546875 671.613281 C 351.417969 674.96875 354.886719 680.351562 360.65625 685.226562 C 363.539062 687.683594 367.046875 689.945312 371.214844 691.660156 C 375.347656 693.339844 380.140625 694.390625 385.363281 694.390625 C 394.132812 694.390625 403.796875 691.46875 414.125 685.070312 C 414.746094 684.679688 415.332031 684.210938 415.839844 683.707031 C 418.371094 681.210938 421.21875 679.179688 424.21875 677.621094 C 424.839844 677.308594 425.386719 676.957031 425.933594 676.527344 L 426.050781 676.410156 L 419.929688 668.84375 L 411.472656 673.683594 L 411.472656 673.722656 C 414.046875 678.207031 419.695312 679.921875 424.335938 677.582031 C 428.582031 675.4375 433.179688 674.265625 438.015625 674.265625 L 438.015625 664.515625 "/>
<path style=" stroke:none;fill-rule:nonzero;fill:rgb(100%,34.118652%,34.118652%);fill-opacity:1;" d="M 458.394531 105.375 L 491.597656 230.613281 C 489.496094 239 480.179688 263.921875 444.949219 253.234375 C 441.015625 251.011719 436.84375 249.375 432.480469 248.4375 L 432.363281 248.398438 C 426.285156 247.113281 419.96875 247.152344 413.773438 248.828125 C 390.273438 255.066406 376.945312 281.394531 383.882812 307.644531 C 390.859375 333.890625 415.527344 350.078125 438.988281 343.875 C 445.222656 342.199219 450.71875 339.117188 455.316406 334.984375 L 455.355469 334.984375 L 455.433594 334.867188 C 458.746094 331.902344 461.550781 328.433594 463.851562 324.570312 C 489.144531 297.777344 509.605469 314.742188 515.605469 320.984375 L 548.847656 446.257812 L 671.6875 413.574219 C 671.6875 413.574219 709.683594 418.722656 696.902344 460.882812 C 694.679688 464.785156 693.042969 468.996094 692.148438 473.328125 L 692.070312 473.441406 C 690.820312 479.527344 690.820312 485.808594 692.496094 492.085938 C 698.734375 515.566406 725.039062 528.945312 751.265625 521.960938 C 777.496094 514.980469 793.667969 490.292969 787.472656 466.851562 C 785.796875 460.574219 782.679688 455.113281 778.585938 450.472656 L 778.46875 450.355469 C 775.507812 447.078125 772.039062 444.230469 768.140625 441.929688 C 736.183594 411.703125 766.621094 388.339844 766.621094 388.339844 L 889.421875 355.695312 L 798.96875 14.851562 L 458.394531 105.375 "/>
<g clip-path="url(#clip1)" clip-rule="nonzero">
<path style=" stroke:none;fill-rule:nonzero;fill:rgb(100%,100%,100%);fill-opacity:1;" d="M 458.394531 105.375 L 448.964844 107.871094 L 482.207031 233.148438 L 491.597656 230.613281 L 482.167969 228.234375 C 481.546875 230.847656 479.792969 235.800781 476.554688 239.46875 C 474.957031 241.339844 473.050781 242.9375 470.632812 244.109375 C 468.175781 245.277344 465.136719 246.097656 460.890625 246.097656 C 457.34375 246.097656 453.019531 245.511719 447.757812 243.914062 L 444.949219 253.234375 L 449.742188 244.773438 C 445.027344 242.082031 439.921875 240.050781 434.546875 238.921875 L 432.480469 248.4375 L 436.300781 239.46875 L 436.183594 239.390625 C 433.179688 238.140625 429.710938 238.453125 426.984375 240.246094 C 424.257812 242.042969 422.621094 245.121094 422.621094 248.398438 L 432.363281 248.398438 L 434.351562 238.882812 C 430.921875 238.140625 427.414062 237.75 423.828125 237.75 C 419.65625 237.75 415.449219 238.296875 411.242188 239.390625 C 399.277344 242.585938 389.378906 250.035156 382.675781 259.671875 C 375.972656 269.34375 372.308594 281.199219 372.308594 293.640625 C 372.308594 299.0625 372.96875 304.601562 374.449219 310.140625 C 377.957031 323.324219 385.285156 334.476562 394.832031 342.355469 C 404.382812 350.234375 416.269531 354.953125 428.777344 354.953125 C 432.988281 354.953125 437.273438 354.40625 441.480469 353.277344 C 449.277344 351.210938 456.136719 347.308594 461.824219 342.277344 L 455.316406 334.984375 L 448.417969 341.886719 L 448.457031 341.886719 C 450.445312 343.875 453.210938 344.929688 456.019531 344.734375 C 458.863281 344.539062 461.4375 343.097656 463.148438 340.835938 L 463.226562 340.71875 L 455.433594 334.867188 L 461.941406 342.121094 C 466.035156 338.496094 469.464844 334.203125 472.230469 329.523438 L 463.851562 324.570312 L 470.945312 331.238281 C 475.503906 326.441406 479.558594 323.554688 483.027344 321.878906 C 486.496094 320.203125 489.339844 319.695312 491.949219 319.65625 C 495.652344 319.65625 499.003906 320.828125 501.925781 322.542969 C 504.890625 324.21875 507.265625 326.402344 508.589844 327.730469 L 515.605469 320.984375 L 506.175781 323.480469 L 539.457031 448.753906 C 540.820312 453.941406 546.160156 457.0625 551.34375 455.65625 L 674.179688 423.011719 L 671.6875 413.574219 L 670.363281 423.246094 C 671.0625 423.324219 676.753906 424.535156 681.351562 427.808594 C 683.652344 429.410156 685.679688 431.398438 687.199219 434.050781 C 688.679688 436.703125 689.769531 439.980469 689.769531 444.933594 C 689.769531 448.402344 689.183594 452.773438 687.585938 458.078125 L 696.902344 460.882812 L 688.445312 456.046875 C 685.71875 460.804688 683.730469 465.914062 682.597656 471.257812 L 692.148438 473.328125 L 683.144531 469.503906 L 683.105469 469.660156 C 681.898438 472.429688 682.09375 475.550781 683.535156 478.164062 C 684.976562 480.777344 687.507812 482.570312 690.472656 483.078125 L 692.070312 473.441406 L 682.558594 471.453125 C 681.820312 474.886719 681.429688 478.433594 681.429688 481.984375 C 681.429688 486.15625 681.976562 490.410156 683.066406 494.582031 C 686.261719 506.59375 693.707031 516.460938 703.332031 523.171875 C 712.996094 529.878906 724.84375 533.585938 737.277344 533.585938 C 742.695312 533.585938 748.226562 532.882812 753.761719 531.402344 C 766.933594 527.890625 778.078125 520.558594 785.953125 511.003906 C 793.824219 501.445312 798.539062 489.550781 798.539062 477.03125 C 798.539062 472.820312 797.992188 468.527344 796.863281 464.355469 C 794.796875 456.515625 790.902344 449.652344 785.875 443.996094 L 778.585938 450.46875 L 785.484375 457.375 L 785.484375 457.335938 C 787.433594 455.386719 788.445312 452.695312 788.328125 449.964844 C 788.171875 447.195312 786.886719 444.621094 784.742188 442.902344 L 784.625 442.789062 L 778.46875 450.355469 L 785.71875 443.839844 C 782.054688 439.785156 777.808594 436.3125 773.128906 433.542969 L 768.140625 441.929688 L 774.84375 434.871094 C 770.050781 430.304688 767.167969 426.25 765.492188 422.777344 C 763.816406 419.308594 763.308594 416.421875 763.269531 413.808594 C 763.269531 411.351562 763.816406 409.050781 764.632812 406.90625 C 765.921875 403.707031 767.984375 400.78125 769.738281 398.832031 C 770.636719 397.855469 771.414062 397.078125 771.960938 396.609375 L 772.507812 396.101562 L 772.625 396.023438 L 770.207031 393.019531 L 772.546875 396.101562 L 772.625 396.023438 L 770.207031 393.019531 L 772.546875 396.101562 L 766.621094 388.339844 L 769.117188 397.777344 L 891.953125 365.132812 C 894.449219 364.46875 896.59375 362.792969 897.878906 360.570312 C 899.164062 358.347656 899.515625 355.695312 898.851562 353.199219 L 808.398438 12.339844 C 807.738281 9.855469 806.0625 7.691406 803.878906 6.394531 C 801.65625 5.117188 798.96875 4.75 796.472656 5.40625 L 455.863281 95.9375 C 450.679688 97.34375 447.601562 102.683594 448.964844 107.871094 L 458.394531 105.375 L 460.890625 114.816406 L 792.070312 26.746094 L 877.535156 348.789062 L 764.128906 378.941406 C 762.878906 379.25 761.710938 379.796875 760.699219 380.617188 C 760.230469 381.007812 756.332031 383.972656 752.242188 389.507812 C 750.214844 392.277344 748.148438 395.671875 746.511719 399.726562 C 744.914062 403.824219 743.785156 408.582031 743.785156 413.808594 C 743.785156 419.308594 745.070312 425.3125 747.953125 431.28125 C 750.839844 437.210938 755.242188 443.175781 761.4375 449.027344 C 761.984375 449.496094 762.570312 449.964844 763.191406 450.3125 C 766.269531 452.148438 768.960938 454.332031 771.21875 456.867188 C 771.609375 457.296875 771.882812 457.570312 772.3125 457.917969 L 772.429688 458.035156 L 778.585938 450.46875 L 771.6875 443.566406 C 768.023438 447.234375 767.867188 453.082031 771.296875 456.945312 C 774.496094 460.53125 776.792969 464.628906 778.039062 469.308594 C 778.703125 471.921875 779.054688 474.496094 779.054688 477.03125 C 779.054688 484.597656 776.207031 492.164062 770.910156 498.597656 C 765.648438 504.957031 758.007812 510.105469 748.773438 512.5625 C 744.875 513.578125 741.019531 514.082031 737.277344 514.082031 C 728.664062 514.082031 720.675781 511.507812 714.476562 507.179688 C 708.28125 502.8125 703.839844 496.84375 701.890625 489.550781 C 701.226562 487.054688 700.914062 484.558594 700.914062 481.984375 C 700.914062 479.800781 701.148438 477.65625 701.617188 475.472656 C 702.164062 472.859375 701.65625 470.167969 700.136719 467.980469 C 698.617188 465.757812 696.316406 464.277344 693.667969 463.847656 L 692.070312 473.441406 L 701.03125 477.226562 L 701.109375 477.109375 C 701.304688 476.5625 701.539062 475.898438 701.65625 475.355469 C 702.359375 472.039062 703.605469 468.800781 705.359375 465.71875 C 705.710938 465.097656 706.019531 464.355469 706.253906 463.691406 C 708.28125 456.867188 709.253906 450.625 709.253906 444.933594 C 709.292969 436.390625 707.035156 429.019531 703.449219 423.246094 C 700.800781 418.957031 697.488281 415.601562 694.132812 413.027344 C 689.105469 409.128906 684.003906 406.984375 680.066406 405.65625 C 676.167969 404.410156 673.402344 403.980469 672.972656 403.941406 C 671.6875 403.746094 670.402344 403.824219 669.152344 404.175781 L 555.785156 434.324219 L 525.039062 318.484375 C 524.609375 316.886719 523.75 315.445312 522.621094 314.234375 C 520.398438 311.933594 516.773438 308.539062 511.632812 305.613281 C 506.566406 302.691406 499.863281 300.15625 491.949219 300.15625 C 486.457031 300.15625 480.492188 301.441406 474.53125 304.328125 C 468.566406 307.214844 462.644531 311.660156 456.757812 317.863281 C 456.292969 318.367188 455.863281 318.953125 455.511719 319.578125 C 453.640625 322.660156 451.457031 325.351562 448.925781 327.613281 C 448.496094 328.003906 447.992188 328.546875 447.640625 329.015625 L 447.5625 329.132812 L 455.355469 334.984375 L 462.214844 328.121094 L 462.214844 328.082031 C 458.550781 324.414062 452.707031 324.257812 448.847656 327.691406 C 445.261719 330.890625 441.171875 333.191406 436.453125 334.4375 L 436.492188 334.4375 C 433.882812 335.101562 431.3125 335.453125 428.777344 335.453125 C 421.21875 335.453125 413.65625 332.605469 407.265625 327.300781 C 400.875 322.035156 395.769531 314.390625 393.3125 305.148438 C 392.261719 301.246094 391.792969 297.386719 391.792969 293.640625 C 391.792969 285.023438 394.328125 277.027344 398.652344 270.824219 C 403.015625 264.625 408.980469 260.175781 416.269531 258.226562 C 418.761719 257.5625 421.292969 257.253906 423.828125 257.253906 C 425.972656 257.253906 428.152344 257.484375 430.335938 257.953125 C 433.179688 258.539062 436.222656 257.835938 438.480469 255.964844 C 440.78125 254.171875 442.105469 251.324219 442.105469 248.398438 L 432.363281 248.398438 L 428.542969 257.367188 L 428.699219 257.445312 C 429.207031 257.640625 429.90625 257.835938 430.453125 257.992188 C 433.765625 258.695312 437 259.941406 440.117188 261.699219 C 440.703125 262.050781 441.402344 262.359375 442.105469 262.59375 C 448.925781 264.625 455.160156 265.597656 460.890625 265.597656 C 467.789062 265.597656 473.90625 264.15625 479.050781 261.699219 C 486.804688 257.953125 491.988281 252.144531 495.300781 246.800781 C 498.613281 241.378906 500.25 236.269531 501.070312 232.992188 C 501.460938 231.394531 501.460938 229.714844 501.03125 228.117188 L 467.789062 102.878906 L 458.394531 105.375 L 460.890625 114.816406 L 458.394531 105.375 "/>
</g>
<path style=" stroke:none;fill-rule:nonzero;fill:rgb(100%,34.118652%,34.118652%);fill-opacity:1;" d="M 579.089844 537.875 C 579.089844 537.875 543.742188 552.578125 566.855469 589.984375 C 570.011719 593.179688 572.621094 596.808594 574.648438 600.746094 L 574.726562 600.863281 C 577.492188 606.363281 579.089844 612.488281 579.089844 618.960938 C 579.089844 643.222656 557.109375 662.878906 530.027344 662.878906 C 502.941406 662.878906 481 643.222656 481 618.960938 C 481 612.488281 482.597656 606.363281 485.363281 600.863281 L 485.324219 600.863281 L 485.441406 600.746094 C 487.429688 596.808594 490.078125 593.179688 493.238281 589.984375 C 516.308594 552.578125 481 537.875 481 537.875 L 354.109375 537.875 L 354.109375 664.828125 C 354.109375 664.828125 368.800781 700.203125 406.175781 677.074219 C 409.371094 673.917969 412.992188 671.304688 416.929688 669.273438 L 417.046875 669.195312 L 417.046875 669.234375 C 422.582031 666.425781 428.660156 664.828125 435.128906 664.828125 C 459.371094 664.828125 479.011719 686.824219 479.011719 713.933594 C 479.011719 741.039062 459.371094 763.035156 435.128906 763.035156 C 428.660156 763.035156 422.582031 761.4375 417.046875 758.628906 L 417.046875 758.667969 L 416.929688 758.589844 C 412.992188 756.5625 409.371094 753.949219 406.175781 750.789062 C 368.800781 727.660156 354.109375 763.035156 354.109375 763.035156 L 354.109375 889.988281 L 705.941406 889.988281 L 705.941406 537.875 L 579.089844 537.875 "/>
<path style=" stroke:none;fill-rule:nonzero;fill:rgb(100%,100%,100%);fill-opacity:1;" d="M 579.089844 537.875 L 575.347656 528.867188 C 574.726562 529.140625 568.800781 531.597656 562.449219 537.367188 C 559.292969 540.253906 556.019531 544.039062 553.523438 548.914062 C 550.953125 553.75 549.238281 559.675781 549.277344 566.347656 C 549.277344 575.082031 552.121094 584.757812 558.554688 595.09375 C 558.941406 595.714844 559.410156 596.300781 559.878906 596.808594 C 562.371094 599.34375 564.4375 602.152344 565.957031 605.15625 C 566.269531 605.816406 566.621094 606.363281 567.085938 606.910156 L 567.164062 607.027344 L 574.726562 600.863281 L 571.648438 591.621094 C 568.957031 592.519531 566.777344 594.546875 565.683594 597.160156 C 564.632812 599.773438 564.75 602.738281 566.035156 605.273438 C 568.179688 609.5625 569.347656 614.085938 569.347656 618.960938 C 569.347656 628.089844 565.253906 636.394531 558.242188 642.714844 C 551.1875 649.070312 541.210938 653.128906 530.027344 653.128906 C 518.839844 653.128906 508.902344 649.070312 501.847656 642.714844 C 494.796875 636.394531 490.742188 628.089844 490.742188 618.960938 C 490.742188 614.125 491.910156 609.5625 494.054688 605.273438 C 495.378906 602.621094 495.457031 599.5 494.210938 596.808594 C 493.003906 594.117188 490.585938 592.128906 487.742188 591.425781 L 487.703125 591.386719 L 485.324219 600.863281 L 492.886719 607.027344 L 493.003906 606.910156 C 493.429688 606.363281 493.78125 605.816406 494.09375 605.195312 C 495.652344 602.152344 497.679688 599.34375 500.171875 596.808594 C 500.679688 596.300781 501.148438 595.714844 501.5 595.09375 C 507.929688 584.757812 510.8125 575.082031 510.773438 566.347656 C 510.8125 559.675781 509.097656 553.75 506.566406 548.914062 C 502.746094 541.621094 497.367188 536.785156 493.003906 533.664062 C 488.636719 530.503906 485.207031 529.0625 484.703125 528.867188 C 483.492188 528.359375 482.285156 528.125 481 528.125 L 354.109375 528.125 C 351.535156 528.125 349.042969 529.140625 347.210938 530.972656 C 345.417969 532.765625 344.363281 535.300781 344.363281 537.875 L 344.363281 664.828125 C 344.363281 666.117188 344.597656 667.363281 345.105469 668.574219 C 345.378906 669.234375 347.832031 675.125 353.601562 681.484375 C 356.484375 684.640625 360.265625 687.917969 365.136719 690.453125 C 369.96875 692.988281 375.894531 694.703125 382.558594 694.664062 C 391.285156 694.703125 400.953125 691.816406 411.277344 685.382812 C 411.902344 685.03125 412.488281 684.5625 412.992188 684.054688 C 415.527344 681.558594 418.332031 679.53125 421.371094 677.972656 C 421.996094 677.660156 422.542969 677.308594 423.085938 676.839844 L 423.203125 676.761719 L 417.046875 669.195312 L 407.8125 672.277344 L 407.8125 672.316406 C 408.707031 674.96875 410.734375 677.152344 413.34375 678.246094 C 415.957031 679.296875 418.917969 679.179688 421.449219 677.933594 C 425.738281 675.75 430.296875 674.617188 435.128906 674.578125 C 444.25 674.617188 452.550781 678.675781 458.902344 685.734375 C 465.175781 692.792969 469.269531 702.738281 469.269531 713.933594 C 469.269531 725.125 465.175781 735.109375 458.902344 742.171875 C 452.550781 749.230469 444.25 753.246094 435.128906 753.285156 C 430.296875 753.285156 425.738281 752.117188 421.449219 749.933594 C 418.839844 748.644531 415.800781 748.566406 413.148438 749.699219 C 410.5 750.867188 408.472656 753.167969 407.695312 755.976562 L 417.046875 758.667969 L 423.203125 751.101562 L 423.085938 751.023438 C 422.542969 750.554688 421.996094 750.203125 421.371094 749.894531 C 418.371094 748.371094 415.527344 746.304688 412.992188 743.808594 C 412.488281 743.339844 411.902344 742.832031 411.277344 742.480469 C 400.953125 736.046875 391.285156 733.199219 382.558594 733.199219 C 375.894531 733.160156 369.96875 734.875 365.136719 737.449219 C 357.847656 741.234375 353.015625 746.65625 349.898438 750.984375 C 346.742188 755.351562 345.300781 758.824219 345.105469 759.292969 C 344.597656 760.5 344.363281 761.75 344.363281 763.035156 L 344.363281 889.988281 C 344.363281 892.5625 345.417969 895.097656 347.210938 896.894531 C 349.042969 898.726562 351.535156 899.742188 354.109375 899.742188 L 705.941406 899.742188 C 708.515625 899.742188 711.046875 898.726562 712.839844 896.894531 C 714.671875 895.097656 715.6875 892.5625 715.6875 889.988281 L 715.6875 537.875 C 715.6875 535.300781 714.671875 532.804688 712.839844 530.972656 C 711.046875 529.136719 708.515625 528.125 705.941406 528.125 L 579.089844 528.125 C 577.804688 528.125 576.558594 528.359375 575.347656 528.867188 L 579.089844 537.875 L 579.089844 547.625 L 696.199219 547.625 L 696.199219 880.238281 L 363.851562 880.238281 L 363.851562 763.035156 L 354.109375 763.035156 L 363.109375 766.78125 L 358.277344 764.753906 L 363.070312 766.820312 L 363.109375 766.78125 L 358.277344 764.753906 L 363.070312 766.820312 C 363.070312 766.820312 363.1875 766.625 363.382812 766.195312 C 364.164062 764.636719 366.34375 760.890625 369.65625 757.925781 C 371.253906 756.40625 373.164062 755.121094 375.269531 754.183594 C 377.375 753.246094 379.671875 752.699219 382.558594 752.699219 C 386.960938 752.699219 392.960938 754.105469 401.03125 759.058594 L 406.175781 750.789062 L 399.316406 757.730469 C 403.210938 761.554688 407.65625 764.792969 412.527344 767.25 L 416.929688 758.589844 L 410.773438 766.15625 L 410.929688 766.234375 C 413.421875 768.300781 416.890625 768.964844 419.96875 767.988281 C 423.085938 767.015625 425.542969 764.480469 426.4375 761.359375 L 426.4375 761.320312 L 417.046875 758.628906 L 412.683594 767.367188 C 419.425781 770.757812 427.0625 772.789062 435.128906 772.789062 C 450.25 772.789062 463.890625 765.84375 473.398438 755.160156 C 482.988281 744.433594 488.753906 729.84375 488.753906 713.933594 C 488.753906 698.019531 482.988281 683.433594 473.398438 672.746094 C 463.890625 662.019531 450.25 655.078125 435.128906 655.078125 C 427.0625 655.078125 419.425781 657.105469 412.644531 660.5 L 417.046875 669.234375 L 426.285156 666.117188 C 425.269531 663.074219 422.855469 660.734375 419.773438 659.835938 C 416.695312 658.9375 413.382812 659.601562 410.929688 661.628906 L 410.773438 661.746094 L 416.929688 669.273438 L 412.488281 660.617188 C 407.65625 663.074219 403.210938 666.308594 399.355469 670.132812 L 406.175781 677.074219 L 401.03125 668.808594 C 392.960938 673.800781 386.960938 675.164062 382.558594 675.164062 C 379.167969 675.164062 376.515625 674.382812 374.140625 673.136719 C 370.59375 671.304688 367.671875 668.222656 365.722656 665.53125 C 364.785156 664.164062 364.046875 662.957031 363.617188 662.136719 C 363.382812 661.707031 363.226562 661.394531 363.148438 661.203125 L 363.070312 661.046875 L 357.304688 663.503906 L 363.109375 661.085938 L 363.070312 661.046875 L 357.304688 663.503906 L 363.109375 661.085938 L 354.109375 664.828125 L 363.851562 664.828125 L 363.851562 547.625 L 481 547.625 L 481 537.875 L 477.21875 546.886719 L 479.167969 542.203125 L 477.179688 546.847656 L 477.21875 546.886719 L 479.167969 542.203125 L 477.179688 546.847656 C 477.179688 546.847656 477.414062 546.964844 477.84375 547.15625 C 479.363281 547.9375 483.144531 550.121094 486.066406 553.398438 C 487.585938 555.035156 488.871094 556.910156 489.808594 559.015625 C 490.742188 561.160156 491.289062 563.460938 491.289062 566.347656 C 491.289062 570.792969 489.886719 576.761719 484.933594 584.835938 L 493.238281 589.984375 L 486.261719 583.15625 C 482.441406 587.019531 479.246094 591.464844 476.75 596.300781 L 485.441406 600.746094 L 477.882812 594.585938 L 477.765625 594.742188 C 475.660156 597.316406 475.035156 600.785156 476.089844 603.945312 C 477.140625 607.105469 479.753906 609.523438 482.949219 610.34375 L 482.988281 610.34375 L 485.363281 600.863281 L 476.671875 596.496094 C 473.242188 603.242188 471.21875 610.886719 471.257812 618.960938 C 471.21875 634.09375 478.15625 647.746094 488.871094 657.261719 C 499.550781 666.855469 514.125 672.589844 530.027344 672.628906 C 545.925781 672.589844 560.5 666.855469 571.21875 657.261719 C 581.898438 647.746094 588.832031 634.09375 588.832031 618.960938 C 588.832031 610.886719 586.847656 603.242188 583.417969 596.496094 L 574.726562 600.863281 L 577.804688 610.148438 L 577.804688 610.109375 C 580.84375 609.09375 583.183594 606.636719 584.078125 603.59375 C 584.976562 600.511719 584.3125 597.199219 582.285156 594.742188 L 582.207031 594.585938 L 574.648438 600.746094 L 583.339844 596.339844 C 580.84375 591.464844 577.609375 587.019531 573.789062 583.15625 L 566.855469 589.984375 L 575.117188 584.835938 C 570.128906 576.761719 568.761719 570.792969 568.761719 566.347656 C 568.761719 562.953125 569.542969 560.300781 570.789062 557.921875 C 572.621094 554.375 575.699219 551.410156 578.429688 549.5 C 579.753906 548.523438 581 547.820312 581.820312 547.390625 C 582.207031 547.15625 582.519531 547.003906 582.714844 546.925781 L 582.871094 546.847656 L 580.453125 541.152344 L 582.832031 546.886719 L 582.871094 546.847656 L 580.453125 541.152344 L 582.832031 546.886719 L 579.089844 537.875 L 579.089844 547.625 L 579.089844 537.875 "/>
<path style=" stroke:none;fill-rule:nonzero;fill:rgb(100%,34.118652%,34.118652%);fill-opacity:1;" d="M 132.828125 537.328125 C 132.828125 537.328125 168.175781 522.625 145.066406 485.222656 C 141.945312 481.984375 139.296875 478.394531 137.269531 474.457031 L 137.191406 474.300781 C 134.425781 468.800781 132.828125 462.679688 132.828125 456.242188 C 132.828125 431.984375 154.808594 412.328125 181.894531 412.328125 C 208.976562 412.328125 230.957031 431.984375 230.957031 456.242188 C 230.957031 462.679688 229.359375 468.800781 226.554688 474.300781 L 226.476562 474.457031 C 224.488281 478.394531 221.839844 481.984375 218.683594 485.222656 C 195.570312 522.625 230.957031 537.328125 230.957031 537.328125 L 357.808594 537.328125 L 357.808594 410.335938 C 357.808594 410.335938 343.117188 374.960938 305.746094 398.089844 C 302.546875 401.25 298.925781 403.863281 294.988281 405.890625 L 294.871094 406.007812 L 294.832031 405.96875 C 289.335938 408.738281 283.257812 410.335938 276.789062 410.335938 C 252.546875 410.335938 232.90625 388.378906 232.90625 361.273438 C 232.90625 334.125 252.546875 312.167969 276.789062 312.167969 C 283.257812 312.167969 289.335938 313.765625 294.832031 316.535156 L 294.871094 316.496094 L 294.988281 316.613281 C 298.925781 318.601562 302.546875 321.253906 305.746094 324.414062 C 343.117188 347.542969 357.808594 312.167969 357.808594 312.167969 L 357.808594 185.175781 L 5.941406 185.175781 L 5.941406 537.328125 L 132.828125 537.328125 "/>
<path style=" stroke:none;fill-rule:nonzero;fill:rgb(100%,100%,100%);fill-opacity:1;" d="M 132.828125 537.328125 L 136.570312 546.339844 C 137.191406 546.066406 143.117188 543.609375 149.46875 537.835938 C 152.585938 534.910156 155.859375 531.128906 158.394531 526.292969 C 160.925781 521.457031 162.679688 515.488281 162.640625 508.855469 C 162.640625 500.082031 159.757812 490.449219 153.367188 480.113281 C 153.015625 479.488281 152.507812 478.902344 152.039062 478.394531 C 149.507812 475.859375 147.480469 473.015625 145.960938 470.011719 C 145.6875 469.503906 145.453125 469.113281 145.105469 468.644531 L 144.988281 468.488281 L 137.191406 474.300781 L 138.789062 483.933594 L 138.828125 483.933594 C 141.867188 483.429688 144.519531 481.476562 145.882812 478.707031 C 147.285156 475.9375 147.285156 472.664062 145.921875 469.933594 C 143.738281 465.644531 142.570312 461.078125 142.570312 456.242188 C 142.570312 447.117188 146.625 438.808594 153.714844 432.453125 C 160.730469 426.132812 170.707031 422.078125 181.894531 422.078125 C 193.078125 422.078125 203.054688 426.132812 210.070312 432.453125 C 217.121094 438.808594 221.175781 447.117188 221.214844 456.242188 C 221.214844 461.078125 220.007812 465.644531 217.863281 469.933594 C 216.460938 472.664062 216.460938 475.9375 217.863281 478.707031 C 219.265625 481.476562 221.917969 483.429688 224.957031 483.933594 L 226.554688 474.300781 L 218.566406 468.800781 L 218.449219 468.957031 C 218.214844 469.269531 218.019531 469.660156 217.824219 470.011719 C 216.265625 473.015625 214.238281 475.859375 211.746094 478.394531 C 211.238281 478.902344 210.769531 479.488281 210.417969 480.113281 C 203.988281 490.449219 201.105469 500.082031 201.105469 508.820312 C 201.105469 515.488281 202.820312 521.457031 205.355469 526.292969 C 209.171875 533.585938 214.550781 538.421875 218.914062 541.542969 C 223.28125 544.660156 226.710938 546.105469 227.175781 546.339844 C 228.386719 546.808594 229.632812 547.078125 230.957031 547.078125 L 357.808594 547.078125 C 360.382812 547.078125 362.875 546.027344 364.707031 544.234375 C 366.5 542.398438 367.554688 539.902344 367.554688 537.328125 L 367.554688 410.335938 C 367.554688 409.050781 367.320312 407.800781 366.8125 406.59375 C 366.5 405.96875 364.085938 400.039062 358.316406 393.722656 C 355.394531 390.5625 351.613281 387.285156 346.78125 384.75 C 341.949219 382.214844 335.984375 380.5 329.359375 380.5 C 320.59375 380.5 310.964844 383.386719 300.601562 389.78125 C 300.015625 390.171875 299.390625 390.640625 298.886719 391.148438 C 296.390625 393.644531 293.585938 395.671875 290.546875 397.230469 C 290.039062 397.464844 289.453125 397.855469 288.988281 398.207031 L 288.871094 398.324219 L 294.871094 406.007812 L 304.105469 402.925781 L 304.105469 402.886719 C 303.210938 400.195312 301.183594 398.011719 298.574219 396.960938 C 295.960938 395.867188 292.960938 395.984375 290.46875 397.269531 C 286.179688 399.417969 281.621094 400.585938 276.789062 400.585938 C 267.667969 400.585938 259.367188 396.53125 253.015625 389.472656 C 246.703125 382.410156 242.648438 372.425781 242.648438 361.273438 C 242.648438 350.078125 246.703125 340.09375 253.015625 333.035156 C 259.367188 325.976562 267.667969 321.917969 276.789062 321.917969 C 281.621094 321.917969 286.179688 323.089844 290.46875 325.234375 C 293.039062 326.519531 296.117188 326.636719 298.769531 325.46875 C 301.417969 324.296875 303.445312 321.996094 304.222656 319.226562 L 304.222656 319.1875 L 294.871094 316.496094 L 288.441406 323.828125 L 288.558594 323.945312 C 289.179688 324.492188 289.84375 324.921875 290.585938 325.3125 C 293.585938 326.832031 296.390625 328.898438 298.925781 331.355469 C 299.429688 331.863281 300.015625 332.332031 300.601562 332.722656 C 310.964844 339.117188 320.59375 342.003906 329.359375 342.003906 C 335.984375 342.003906 341.949219 340.289062 346.78125 337.753906 C 354.070312 333.929688 358.902344 328.550781 362.019531 324.179688 C 365.136719 319.8125 366.578125 316.378906 366.8125 315.914062 C 367.28125 314.703125 367.554688 313.453125 367.554688 312.167969 L 367.554688 185.175781 C 367.554688 182.640625 366.5 180.105469 364.707031 178.273438 C 362.875 176.476562 360.382812 175.425781 357.808594 175.425781 L 5.941406 175.425781 C 3.382812 175.425781 0.871094 176.476562 -0.9375 178.273438 C -2.75 180.105469 -3.804688 182.640625 -3.804688 185.175781 L -3.804688 537.328125 C -3.804688 539.902344 -2.75 542.398438 -0.9375 544.234375 C 0.871094 546.027344 3.382812 547.078125 5.941406 547.078125 L 132.828125 547.078125 C 134.113281 547.078125 135.359375 546.808594 136.570312 546.339844 L 132.828125 537.328125 L 132.828125 527.578125 L 15.679688 527.578125 L 15.679688 194.925781 L 348.066406 194.925781 L 348.066406 312.167969 L 357.808594 312.167969 L 348.808594 308.421875 L 353.5625 310.375 L 348.847656 308.34375 L 348.808594 308.421875 L 353.5625 310.375 L 348.847656 308.34375 C 348.847656 308.34375 348.730469 308.578125 348.535156 309.007812 C 347.753906 310.53125 345.574219 314.3125 342.261719 317.277344 C 340.625 318.796875 338.753906 320.085938 336.648438 321.019531 C 334.542969 321.917969 332.207031 322.503906 329.359375 322.503906 C 324.917969 322.503906 318.917969 321.097656 310.847656 316.105469 L 305.746094 324.414062 L 312.5625 317.472656 C 308.707031 313.648438 304.261719 310.414062 299.390625 307.917969 L 294.988281 316.613281 L 301.378906 309.28125 L 301.261719 309.164062 C 298.769531 306.980469 295.300781 306.199219 292.105469 307.175781 C 288.910156 308.113281 286.414062 310.648438 285.519531 313.84375 L 285.480469 313.84375 L 294.832031 316.535156 L 299.234375 307.839844 C 292.492188 304.40625 284.855469 302.417969 276.789062 302.417969 C 261.667969 302.417969 248.027344 309.320312 238.519531 320.046875 C 228.929688 330.773438 223.164062 345.320312 223.164062 361.273438 C 223.164062 377.183594 228.929688 391.734375 238.519531 402.457031 C 248.027344 413.183594 261.667969 420.125 276.789062 420.085938 C 284.855469 420.085938 292.492188 418.097656 299.234375 414.667969 L 294.832031 405.96875 L 285.597656 409.050781 L 285.636719 409.050781 C 286.609375 412.054688 289.023438 414.433594 292.066406 415.328125 C 295.066406 416.226562 298.378906 415.601562 300.871094 413.652344 L 300.988281 413.574219 L 294.988281 405.890625 L 299.429688 414.589844 C 304.261719 412.09375 308.667969 408.855469 312.5625 405.03125 L 305.742188 398.089844 L 310.847656 406.398438 C 318.917969 401.40625 324.917969 400 329.359375 400 C 332.75 400 335.363281 400.820312 337.777344 402.03125 C 341.324219 403.863281 344.246094 406.945312 346.195312 409.675781 C 347.171875 411 347.871094 412.25 348.300781 413.066406 C 348.535156 413.496094 348.691406 413.808594 348.769531 414.003906 L 348.847656 414.160156 L 354.574219 411.703125 L 348.808594 414.082031 L 348.847656 414.160156 L 354.574219 411.703125 L 348.808594 414.082031 L 357.808594 410.335938 L 348.066406 410.335938 L 348.066406 527.578125 L 230.957031 527.578125 L 230.957031 537.328125 L 234.699219 528.320312 L 232.710938 533.078125 L 234.738281 528.359375 L 234.699219 528.320312 L 232.710938 533.078125 L 234.738281 528.359375 C 234.738281 528.359375 234.503906 528.242188 234.074219 528.007812 C 232.554688 527.265625 228.777344 525.082031 225.8125 521.765625 C 224.332031 520.128906 223.007812 518.257812 222.109375 516.152344 C 221.175781 514.042969 220.589844 511.703125 220.589844 508.820312 C 220.589844 504.410156 221.996094 498.40625 226.984375 490.332031 L 218.683594 485.222656 L 225.617188 492.046875 C 229.4375 488.148438 232.671875 483.738281 235.167969 478.902344 L 226.476562 474.457031 L 234.503906 479.957031 L 234.621094 479.839844 C 236.492188 477.109375 236.84375 473.558594 235.554688 470.480469 C 234.230469 467.4375 231.464844 465.253906 228.191406 464.707031 L 228.152344 464.707031 L 226.554688 474.300781 L 235.246094 478.707031 C 238.675781 471.960938 240.699219 464.316406 240.699219 456.242188 C 240.699219 441.109375 233.765625 427.460938 223.085938 417.902344 C 212.367188 408.347656 197.792969 402.574219 181.894531 402.574219 C 165.953125 402.574219 151.417969 408.347656 140.699219 417.902344 C 129.984375 427.460938 123.085938 441.109375 123.085938 456.242188 C 123.085938 464.316406 125.109375 471.960938 128.5 478.707031 L 137.191406 474.300781 L 135.59375 464.707031 C 132.242188 465.253906 129.398438 467.515625 128.152344 470.675781 C 126.863281 473.832031 127.332031 477.421875 129.359375 480.113281 L 129.476562 480.269531 L 137.269531 474.457031 L 128.578125 478.863281 C 131.074219 483.738281 134.308594 488.148438 138.128906 492.046875 L 145.0625 485.222656 L 136.800781 490.332031 C 141.75 498.40625 143.15625 504.410156 143.15625 508.859375 C 143.15625 512.25 142.375 514.863281 141.128906 517.28125 C 139.296875 520.832031 136.21875 523.757812 133.527344 525.707031 C 132.164062 526.644531 130.957031 527.382812 130.097656 527.8125 C 129.710938 528.007812 129.359375 528.203125 129.203125 528.28125 L 129.007812 528.359375 L 131.503906 534.132812 L 129.085938 528.320312 L 129.007812 528.359375 L 131.503906 534.132812 L 129.085938 528.320312 L 132.828125 537.328125 L 132.828125 527.578125 L 132.828125 537.328125 "/>
</g>
</svg>
